<?xml version="1.0" standalone="no"?>
<!DOCTYPE svg PUBLIC "-//W3C//DTD SVG 1.1//EN" "http://www.w3.org/Graphics/SVG/1.1/DTD/svg11.dtd" >
<svg>
<metadata>
Created by FontForge 20090622 at Fri Sep 21 10:29:06 2018
 By deploy user
&#194;&#169; 2017 Connary Fagen
</metadata>
<defs>
<font id="VisbyCF-Light" horiz-adv-x="167" >
  <font-face 
    font-family="Visby CF Light"
    font-weight="300"
    font-stretch="normal"
    units-per-em="1000"
    panose-1="0 0 4 0 0 0 0 0 0 0"
    ascent="800"
    descent="-200"
    x-height="520"
    cap-height="700"
    bbox="-190 -215 1105 945"
    underline-thickness="50"
    underline-position="-50"
    unicode-range="U+0020-U+FB01"
  />
<missing-glyph horiz-adv-x="495" 
d="M406 800v-990h-314v990h314zM330 734h-164v-33h65v-37h-66v-32h165v32h-66v37h66v33zM264 606h-99v-103h165v34h-66v69zM231 572v-35h-33v35h33zM330 476h-165v-32h66v-37h-66v-33h99v70h66v32zM330 417h-33v-65h-132v-34h165v99zM330 296h-99v-55h33v22h33v-46h-99v79
h-33v-112h165v112zM330 125h-165v-112h165v112zM297 92v-46h-99v46h99zM330 -10h-165v-32h70l-70 -47v-33h165v33h-101l69 47h32v32z" />
    <glyph glyph-name="fi" unicode="fi" horiz-adv-x="471" 
d="M117 520h293v-520h-46v479h-247v-479h-47v479h-50v41h50v49q0 150 138 150q41 0 74 -14v-41q-35 13 -71 13q-94 0 -94 -109v-48zM364 707h46v-48h-46v48z" />
    <glyph glyph-name="f_f" unicode="ff" horiz-adv-x="641" 
d="M518 676q-45 0 -70 -24t-25 -84v-48h161v-41h-161v-479h-47v479h-259v-479h-47v479h-50v41h50v49q0 150 137 150q55 0 102 -29l-18 -33q-33 19 -79 19q-45 0 -70 -24t-25 -84v-48h259v49q0 150 137 150q55 0 102 -29l-18 -33q-33 19 -79 19z" />
    <glyph glyph-name=".notdef" horiz-adv-x="495" 
d="M406 800v-990h-314v990h314zM330 734h-164v-33h65v-37h-66v-32h165v32h-66v37h66v33zM264 606h-99v-103h165v34h-66v69zM231 572v-35h-33v35h33zM330 476h-165v-32h66v-37h-66v-33h99v70h66v32zM330 417h-33v-65h-132v-34h165v99zM330 296h-99v-55h33v22h33v-46h-99v79
h-33v-112h165v112zM330 125h-165v-112h165v112zM297 92v-46h-99v46h99zM330 -10h-165v-32h70l-70 -47v-33h165v33h-101l69 47h32v32z" />
    <glyph glyph-name=".null" horiz-adv-x="0" 
 />
    <glyph glyph-name="nonmarkingreturn" horiz-adv-x="333" 
 />
    <glyph glyph-name="space" unicode=" " horiz-adv-x="250" 
 />
    <glyph glyph-name="exclam" unicode="!" horiz-adv-x="181" 
d="M116 700v-521h-51v521h51zM90 -10q-14 0 -22 8.5t-8 21.5t8 22t22 9t22.5 -9t8.5 -22t-8.5 -21.5t-22.5 -8.5z" />
    <glyph glyph-name="quotedbl" unicode="&#x22;" horiz-adv-x="235" 
d="M82 700l-4 -200h-38l-5 200h47zM200 700l-4 -200h-38l-5 200h47z" />
    <glyph glyph-name="numbersign" unicode="#" horiz-adv-x="550" 
d="M505 478h-94l-18 -255h112v-43h-115l-13 -180h-47l13 180h-165l-13 -180h-47l13 180h-86v43h89l18 255h-107v42h110l13 180h47l-13 -180h165l13 180h47l-13 -180h91v-42zM346 223l18 255h-165l-18 -255h165z" />
    <glyph glyph-name="dollar" unicode="$" horiz-adv-x="528" 
d="M493 184q0 -81 -60 -134.5t-147 -58.5v-81h-43v81q-76 8 -134 54.5t-74 115.5l41 17q18 -65 70.5 -104.5t122.5 -39.5q73 0 125 41.5t52 107.5q0 26 -9 47t-20.5 34t-36.5 27t-41.5 21t-50.5 20l-60 23q-164 65 -164 184q0 70 50.5 117t128.5 53v81h43v-81
q69 -7 119.5 -48t69.5 -99l-36 -18q-24 56 -68.5 89.5t-106.5 33.5q-67 0 -110 -35t-43 -93q0 -93 132 -143l52 -20q51 -20 79 -33.5t59.5 -36t45.5 -52.5t14 -70z" />
    <glyph glyph-name="percent" unicode="%" horiz-adv-x="698" 
d="M159 705q51 0 87.5 -36t36.5 -87t-36.5 -87t-87.5 -36t-87.5 36t-36.5 87t36.5 87t87.5 36zM558 701l35 -25l-454 -676l-36 25zM159 668q-36 0 -61.5 -24.5t-25.5 -61.5t25.5 -61.5t61.5 -24.5t61.5 24.5t25.5 61.5t-25.5 61.5t-61.5 24.5zM539 241q51 0 87.5 -36
t36.5 -87t-36.5 -87t-87.5 -36t-87.5 36t-36.5 87t36.5 87t87.5 36zM539 204q-36 0 -61.5 -24.5t-25.5 -61.5t25.5 -61.5t61.5 -24.5t61.5 24.5t25.5 61.5t-25.5 61.5t-61.5 24.5z" />
    <glyph glyph-name="ampersand" unicode="&#x26;" horiz-adv-x="705" 
d="M608 40q30 0 62 20v-40q-30 -23 -66 -23q-81 0 -81 89v40q-26 -65 -83.5 -100.5t-134.5 -35.5q-103 0 -174 61t-71 163q0 95 63.5 155.5t159.5 65.5l-156 265h395v-42h-325l151 -259h-40q-86 0 -143.5 -51t-57.5 -134q0 -85 59 -133t142 -48q94 0 151.5 58t57.5 132v173
h120v-41h-78v-262q0 -53 49 -53z" />
    <glyph glyph-name="quotesingle" unicode="'" horiz-adv-x="117" 
d="M82 700l-4 -200h-38l-5 200h47z" />
    <glyph glyph-name="parenleft" unicode="(" horiz-adv-x="229" 
d="M194 745q-101 -183 -101 -425q0 -256 101 -450h-43q-106 189 -106 450q0 248 106 425h43z" />
    <glyph glyph-name="parenright" unicode=")" horiz-adv-x="229" 
d="M45 745h43q106 -177 106 -425q0 -261 -106 -450h-43q101 194 101 450q0 242 -101 425z" />
    <glyph glyph-name="asterisk" unicode="*" horiz-adv-x="439" 
d="M241 699l-2 -117h-38l-3 117h43zM85 615l113 -35l-9 -35l-114 30zM354 615l10 -40l-114 -30l-9 35zM190 541l28 -24l-66 -95l-35 23zM249 541l73 -96l-35 -23l-66 95z" />
    <glyph glyph-name="plus" unicode="+" horiz-adv-x="394" 
d="M364 301v-38h-149v-148h-37v148h-148v38h148v147h37v-147h149z" />
    <glyph glyph-name="comma" unicode="," horiz-adv-x="174" 
d="M25 -142l69 197h45l-70 -197h-44z" />
    <glyph glyph-name="hyphen" unicode="-" horiz-adv-x="400" 
d="M355 301v-37h-310v37h310z" />
    <glyph glyph-name="period" unicode="." horiz-adv-x="131" 
d="M65 -10q-14 0 -22 8.5t-8 21.5t8 22t22 9t22.5 -9t8.5 -22t-8.5 -21.5t-22.5 -8.5z" />
    <glyph glyph-name="slash" unicode="/" horiz-adv-x="466" 
d="M426 745l-340 -875h-46l340 875h46z" />
    <glyph glyph-name="zero" unicode="0" horiz-adv-x="796" 
d="M398 710q138 0 245.5 -103.5t107.5 -256.5t-107.5 -256.5t-245.5 -103.5q-139 0 -246 103.5t-107 256.5t107 256.5t246 103.5zM398 34q117 0 212 91t95 225t-95 225t-212 91t-212 -91t-95 -225t95 -225t212 -91z" />
    <glyph glyph-name="one" unicode="1" horiz-adv-x="277" 
d="M196 700v-700h-46v655h-90v45h136z" />
    <glyph glyph-name="two" unicode="2" horiz-adv-x="507" 
d="M254 710q88 0 148 -56t60 -141q0 -23 -7.5 -47.5t-16.5 -43t-31 -48.5t-36 -47l-48.5 -57l-51.5 -60l-143 -168h333v-42h-412v15l186 218q14 17 40.5 46.5l37.5 42.5l29.5 35.5t26.5 34.5t19 30t15.5 31t8 28.5t3.5 31.5q0 69 -46.5 111.5t-114.5 42.5t-115 -45t-47 -122
v-16h-47v16q0 93 60 151.5t149 58.5z" />
    <glyph glyph-name="three" unicode="3" horiz-adv-x="544" 
d="M79 156q22 -55 71 -89t118 -34q78 0 133.5 47t55.5 129q0 97 -69 141.5t-169 28.5l181 279h-328v42h402l-187 -283q88 2 152.5 -54t64.5 -154q0 -99 -68 -159t-167 -60q-84 0 -145 41.5t-84 108.5z" />
    <glyph glyph-name="four" unicode="4" horiz-adv-x="511" 
d="M476 241v-43h-75v-198h-47v198h-314v43l314 459h47v-459h75zM89 241h265v389z" />
    <glyph glyph-name="five" unicode="5" horiz-adv-x="557" 
d="M446 700v-42h-296l-37 -258q64 71 170 71q93 0 163.5 -67.5t70.5 -172.5t-70 -173t-172 -68q-86 0 -144.5 40t-85.5 103l40 21q20 -51 69 -86t119 -35q83 0 140.5 55.5t57.5 142.5q0 86 -57 142t-137 56q-100 0 -169 -83l-43 10l48 344h333z" />
    <glyph glyph-name="six" unicode="6" horiz-adv-x="530" 
d="M368 700l-222 -309q55 38 119 38q91 0 158 -63t67 -156q0 -94 -65 -157t-159 -63q-95 0 -160.5 63.5t-65.5 159.5q0 24 3.5 47.5t13 47l15.5 39t21.5 39.5l21 32.5t23.5 33t19 26.5l158 222h53zM266 385q-80 0 -130.5 -46.5t-50.5 -128.5q0 -78 53.5 -127t127.5 -49
q71 0 125 49t54 127q0 79 -54.5 127t-124.5 48z" />
    <glyph glyph-name="seven" unicode="7" horiz-adv-x="462" 
d="M432 700l-271 -700h-47l256 658h-340v42h402z" />
    <glyph glyph-name="eight" unicode="8" horiz-adv-x="516" 
d="M350 389q59 -25 95 -75t36 -116q0 -92 -65.5 -150t-157.5 -58t-157.5 58t-65.5 150q0 66 36 116t96 75q-92 53 -92 151q0 71 50 120.5t133 49.5t133 -49.5t50 -120.5q0 -98 -91 -151zM119 540q0 -56 40 -95t99 -39t99 39t40 95q0 51 -37.5 89.5t-101.5 38.5
q-63 0 -101 -38.5t-38 -89.5zM258 34q72 0 123.5 45.5t51.5 118.5t-50.5 119.5t-124.5 46.5t-124.5 -46.5t-50.5 -119.5t51.5 -118.5t123.5 -45.5z" />
    <glyph glyph-name="nine" unicode="9" horiz-adv-x="530" 
d="M162 0l222 309q-55 -38 -119 -38q-91 0 -158 63t-67 156q0 94 65 157t159 63q95 0 160.5 -63.5t65.5 -159.5q0 -24 -3.5 -47.5t-13 -47l-15.5 -39t-21.5 -39.5l-21 -32.5t-23.5 -33t-19 -26.5l-158 -222h-53zM264 315q80 0 130.5 46.5t50.5 128.5q0 78 -53.5 127
t-127.5 49q-71 0 -125 -49t-54 -127q0 -79 54.5 -127t124.5 -48z" />
    <glyph glyph-name="colon" unicode=":" horiz-adv-x="161" 
d="M80 438q-14 0 -22 8.5t-8 21.5t8 22t22 9t22.5 -9t8.5 -22t-8.5 -21.5t-22.5 -8.5zM80 -10q-14 0 -22 8.5t-8 21.5t8 22t22 9t22.5 -9t8.5 -22t-8.5 -21.5t-22.5 -8.5z" />
    <glyph glyph-name="semicolon" unicode=";" horiz-adv-x="182" 
d="M116 438q-14 0 -22 8.5t-8 21.5t8 22t22 9t22.5 -9t8.5 -22t-8.5 -21.5t-22.5 -8.5zM25 -142l69 197h45l-70 -197h-44z" />
    <glyph glyph-name="less" unicode="&#x3c;" horiz-adv-x="497" 
d="M462 481v-47l-354 -194l354 -192v-48l-417 229v23z" />
    <glyph glyph-name="equal" unicode="=" horiz-adv-x="426" 
d="M381 381v-37h-335v37h335zM381 221v-37h-335v37h335z" />
    <glyph glyph-name="greater" unicode="&#x3e;" horiz-adv-x="497" 
d="M35 481l417 -229v-23l-417 -229v48l354 192l-354 194v47z" />
    <glyph glyph-name="question" unicode="?" horiz-adv-x="493" 
d="M247 710q91 0 148.5 -53t57.5 -136q0 -47 -19.5 -83t-47.5 -59.5l-56 -45.5t-47.5 -52t-19.5 -67v-35h-48v30q0 45 19.5 79.5t47.5 57l56.5 44.5t48 55t19.5 76q0 69 -44 107.5t-115 38.5q-72 0 -116 -43.5t-44 -132.5h-47q0 104 56 161.5t151 57.5zM238 -10
q-14 0 -22 8.5t-8 21.5t8 22t22 9t22.5 -9t8.5 -22t-8.5 -21.5t-22.5 -8.5z" />
    <glyph glyph-name="at" unicode="@" horiz-adv-x="787" 
d="M394 710q144 0 246 -103t102 -273q0 -91 -32 -138t-88 -47q-43 0 -69 29t-26 84q-18 -59 -59 -87t-89 -28q-69 0 -122 51.5t-53 149.5q0 90 53.5 141.5t121.5 51.5q46 0 83.5 -23.5t53.5 -67.5l7 81h33v-218q0 -126 67 -126q35 0 56 36.5t21 110.5q0 152 -89.5 243.5
t-216.5 91.5q-120 0 -213.5 -91.5t-93.5 -229.5q0 -90 46.5 -164t116.5 -113.5t145 -39.5q109 0 179 55l41 -15q-79 -81 -221 -81q-87 0 -166.5 45t-131 128.5t-51.5 184.5q0 155 106 258.5t243 103.5zM379 501q-52 0 -93.5 -39.5t-41.5 -113.5q0 -79 41 -120t94 -41
q52 0 92 44t40 117q0 71 -39.5 112t-92.5 41z" />
    <glyph glyph-name="A" unicode="A" horiz-adv-x="688" 
d="M618 0l-82 188h-384l-82 -188h-50l305 700h37l306 -700h-50zM169 229h350l-175 402z" />
    <glyph glyph-name="B" unicode="B" horiz-adv-x="559" 
d="M365 382q76 -16 117.5 -66.5t41.5 -124.5q0 -90 -62 -140.5t-188 -50.5h-214v700h225q98 0 147.5 -47t49.5 -118q0 -53 -29 -93.5t-88 -59.5zM284 657h-177v-259h173q73 0 114.5 37t41.5 97q0 58 -38.5 91.5t-113.5 33.5zM274 43q203 0 203 152q0 76 -51 119.5t-147 43.5
h-172v-315h167z" />
    <glyph glyph-name="C" unicode="C" horiz-adv-x="667" 
d="M632 75q-102 -85 -232 -85q-66 0 -130 27t-113.5 73.5t-80.5 114.5t-31 145t31 145t80.5 114.5t113.5 73.5t130 27q128 0 230 -83l-31 -35q-84 72 -195 72q-120 0 -215.5 -90t-95.5 -224t95.5 -224t215.5 -90q112 0 196 72z" />
    <glyph glyph-name="D" unicode="D" horiz-adv-x="637" 
d="M244 700q154 0 253.5 -101t99.5 -251q0 -147 -100 -247.5t-253 -100.5h-184v700h184zM243 45q137 0 222 87t85 216q0 132 -85 219.5t-222 87.5h-136v-610h136z" />
    <glyph glyph-name="E" unicode="E" horiz-adv-x="506" 
d="M107 45h354v-45h-401v700h392v-45h-345v-281h273v-45h-273v-284z" />
    <glyph glyph-name="F" unicode="F" horiz-adv-x="491" 
d="M456 658h-349v-285h288v-41h-288v-332h-47v700h396v-42z" />
    <glyph glyph-name="G" unicode="G" horiz-adv-x="770" 
d="M725 341q5 -157 -90.5 -254t-234.5 -97q-91 0 -172 45t-132 129t-51 186q0 77 31 145t80.5 114.5t113.5 73.5t130 27q127 0 229 -83l-31 -35q-84 72 -194 72q-120 0 -215.5 -90t-95.5 -224q0 -135 93.5 -224.5t215.5 -89.5q110 0 188.5 68.5t89.5 193.5h-226v43h271z" />
    <glyph glyph-name="H" unicode="H" horiz-adv-x="612" 
d="M505 700h47v-700h-47v319h-398v-319h-47v700h47v-336h398v336z" />
    <glyph glyph-name="I" unicode="I" 
d="M107 700v-700h-47v700h47z" />
    <glyph glyph-name="J" unicode="J" horiz-adv-x="462" 
d="M402 700v-478q0 -120 -52.5 -176t-144.5 -56q-123 0 -175 95l32 27q48 -77 143 -77q73 0 111.5 44t38.5 145v476h47z" />
    <glyph glyph-name="K" unicode="K" horiz-adv-x="603" 
d="M520 0l-302 341l-111 -118v-223h-47v700h47v-414l388 414h60l-307 -327l330 -373h-58z" />
    <glyph glyph-name="L" unicode="L" horiz-adv-x="483" 
d="M107 45h336v-45h-383v700h47v-655z" />
    <glyph glyph-name="M" unicode="M" horiz-adv-x="845" 
d="M785 700v-700h-47v601h-5l-293 -601h-36l-292 601h-5v-601h-47v700h53l309 -638l310 638h53z" />
    <glyph glyph-name="N" unicode="N" horiz-adv-x="673" 
d="M60 0v700h47l452 -616h7v616h47v-700h-47l-452 616h-7v-616h-47z" />
    <glyph glyph-name="O" unicode="O" horiz-adv-x="800" 
d="M400 710q88 0 169 -44.5t133.5 -129t52.5 -186.5t-52.5 -186.5t-133.5 -129t-169 -44.5q-89 0 -169.5 44.5t-133 128.5t-52.5 187t52.5 187t133 128.5t169.5 44.5zM400 36q118 0 212.5 89.5t94.5 224.5t-94.5 224.5t-212.5 89.5t-212.5 -89.5t-94.5 -224.5t94.5 -224.5
t212.5 -89.5z" />
    <glyph glyph-name="P" unicode="P" horiz-adv-x="556" 
d="M278 700q114 0 178.5 -62t64.5 -156q0 -97 -64 -158t-179 -61h-171v-263h-47v700h218zM280 307q89 0 141.5 47t52.5 128t-52.5 127t-141.5 46h-173v-348h173z" />
    <glyph glyph-name="Q" unicode="Q" horiz-adv-x="800" 
d="M755 350q0 -166 -129 -275l63 -75h-56l-41 49q-90 -59 -192 -59q-89 0 -169.5 44.5t-133 128.5t-52.5 187t52.5 187t133 128.5t169.5 44.5q88 0 169 -44.5t133.5 -129t52.5 -186.5zM400 36q86 0 161 49l-166 198h56l145 -172q111 94 111 239q0 135 -94.5 224.5
t-212.5 89.5t-212.5 -89.5t-94.5 -224.5t94.5 -224.5t212.5 -89.5z" />
    <glyph glyph-name="R" unicode="R" horiz-adv-x="583" 
d="M553 0h-54l-195 264q-8 -1 -26 -1h-171v-263h-47v700h218q114 0 178.5 -62t64.5 -156q0 -80 -44 -136.5t-125 -74.5zM107 307h173q89 0 141.5 47t52.5 128t-52.5 127t-141.5 46h-173v-348z" />
    <glyph glyph-name="S" unicode="S" horiz-adv-x="528" 
d="M264 710q77 0 133.5 -42.5t77.5 -105.5l-36 -18q-24 56 -68.5 89.5t-106.5 33.5q-67 0 -110 -35t-43 -93q0 -93 132 -143l52 -20q51 -20 79 -33.5t59.5 -36t45.5 -52.5t14 -70q0 -86 -65.5 -140t-158.5 -54q-84 0 -150 48t-84 123l41 17q18 -65 70.5 -104.5t122.5 -39.5
q73 0 125 41.5t52 107.5q0 26 -9 47t-20.5 34t-36.5 27t-41.5 21t-50.5 20l-60 23q-164 65 -164 184q0 75 57 123t143 48z" />
    <glyph glyph-name="T" unicode="T" horiz-adv-x="539" 
d="M499 700v-45h-206v-655h-47v655h-206v45h459z" />
    <glyph glyph-name="U" unicode="U" horiz-adv-x="608" 
d="M501 700h47v-443q0 -127 -68 -197t-176 -70t-176 70t-68 197v443h47v-442q0 -107 54.5 -164.5t142.5 -57.5q89 0 143 57.5t54 164.5v442z" />
    <glyph glyph-name="V" unicode="V" horiz-adv-x="688" 
d="M618 700h50l-306 -700h-37l-305 700h50l274 -631z" />
    <glyph glyph-name="W" unicode="W" horiz-adv-x="968" 
d="M943 700l-225 -700h-25l-209 609l-210 -609h-24l-225 700h47l191 -598l208 598h25l208 -598l192 598h47z" />
    <glyph glyph-name="X" unicode="X" horiz-adv-x="624" 
d="M599 0h-57l-230 322l-230 -322h-57l259 362l-242 338h57l213 -298l213 298h56l-241 -338z" />
    <glyph glyph-name="Y" unicode="Y" horiz-adv-x="613" 
d="M588 700l-258 -379v-321h-47v321l-258 379h55l226 -334l227 334h55z" />
    <glyph glyph-name="Z" unicode="Z" horiz-adv-x="577" 
d="M548 700l-442 -657h446v-43h-527l442 658h-416v42h497z" />
    <glyph glyph-name="bracketleft" unicode="[" horiz-adv-x="228" 
d="M183 745v-42h-91v-791h91v-42h-138v875h138z" />
    <glyph glyph-name="backslash" unicode="\" horiz-adv-x="466" 
d="M40 745h46l340 -875h-46z" />
    <glyph glyph-name="bracketright" unicode="]" horiz-adv-x="228" 
d="M45 745h138v-875h-138v42h91v791h-91v42z" />
    <glyph glyph-name="asciicircum" unicode="^" horiz-adv-x="468" 
d="M256 700l167 -225h-47l-141 177l-143 -177h-47l167 225h44z" />
    <glyph glyph-name="underscore" unicode="_" horiz-adv-x="590" 
d="M545 0v-43h-500v43h500z" />
    <glyph glyph-name="grave" unicode="`" horiz-adv-x="121" 
d="M0 740h55l66 -159h-32z" />
    <glyph glyph-name="a" unicode="a" horiz-adv-x="620" 
d="M297 -10q-100 0 -181 72.5t-81 197.5t81 197.5t181 72.5q70 0 128 -36t83 -93h5v119h46v-520h-46v119h-5q-25 -57 -83 -93t-128 -36zM299 32q83 0 149.5 60.5t66.5 167.5t-66.5 167.5t-149.5 60.5q-84 0 -151 -60.5t-67 -167.5t67 -167.5t151 -60.5z" />
    <glyph glyph-name="b" unicode="b" horiz-adv-x="620" 
d="M323 530q100 0 181 -72.5t81 -197.5t-81 -197.5t-181 -72.5q-70 0 -128 36t-83 93h-5v-119h-46v373h-1v334h46v-187h1v-119h5q25 57 83 93t128 36zM321 32q84 0 151 60.5t67 167.5t-67 167.5t-151 60.5q-83 0 -149.5 -60.5t-66.5 -167.5t66.5 -167.5t149.5 -60.5z" />
    <glyph glyph-name="c" unicode="c" horiz-adv-x="550" 
d="M300 530q71 0 129.5 -33t90.5 -95l-40 -15q-27 49 -74.5 75t-105.5 26q-83 0 -151 -60.5t-68 -168.5q0 -106 68 -166.5t151 -60.5q58 0 105.5 26t74.5 75l40 -15q-32 -62 -90.5 -95t-129.5 -33q-100 0 -182.5 72.5t-82.5 196.5q0 85 42 149t101 93t122 29z" />
    <glyph glyph-name="d" unicode="d" horiz-adv-x="617" 
d="M557 707v-334h-1v-373h-46v119h-5q-25 -57 -83 -93t-128 -36q-100 0 -181 72.5t-81 197.5t81 197.5t181 72.5q70 0 128 -36t83 -93h5v119h1v187h46zM296 32q83 0 149.5 60.5t66.5 167.5t-66.5 167.5t-149.5 60.5q-84 0 -151 -60.5t-67 -167.5t67 -167.5t151 -60.5z" />
    <glyph glyph-name="e" unicode="e" horiz-adv-x="588" 
d="M295 530q46 0 92 -18t86 -52t62 -91.5t17 -128.5h-470q6 -99 71.5 -153.5t152.5 -54.5q115 0 173 71l30 -26q-67 -87 -203 -87q-109 0 -190 71.5t-81 198.5q0 85 41.5 148.5t99 92.5t119.5 29zM295 488q-76 0 -141.5 -55t-71.5 -153h428q-2 66 -37.5 115t-82 71t-95.5 22
z" />
    <glyph glyph-name="f" unicode="f" horiz-adv-x="334" 
d="M212 676q-45 0 -70 -24t-25 -84v-48h161v-41h-161v-479h-47v479h-50v41h50v49q0 150 137 150q55 0 102 -29l-18 -33q-33 19 -79 19z" />
    <glyph glyph-name="g" unicode="g" horiz-adv-x="620" 
d="M513 520h46v-520q0 -56 -21 -97.5t-55 -64.5t-70 -33.5t-74 -10.5q-114 0 -164 45v43q51 -46 164 -46q73 0 123.5 42t50.5 122v119h-5q-25 -57 -83 -93t-128 -36q-100 0 -181 72.5t-81 197.5t81 197.5t181 72.5q70 0 128 -36t83 -93h5v119zM299 32q83 0 149.5 60.5
t66.5 167.5t-66.5 167.5t-149.5 60.5q-84 0 -151 -60.5t-67 -167.5t67 -167.5t151 -60.5z" />
    <glyph glyph-name="h" unicode="h" horiz-adv-x="556" 
d="M306 530q85 0 142.5 -57t57.5 -169v-304h-47v306q0 88 -45.5 135t-114.5 47q-81 0 -130.5 -52t-62.5 -113v-323h-46v707h46v-313q5 15 17.5 35t35.5 44t62 40.5t85 16.5z" />
    <glyph glyph-name="i" unicode="i" 
d="M106 707v-48h-46v48h46zM106 520v-520h-46v520h46z" />
    <glyph glyph-name="j" unicode="j" horiz-adv-x="203" 
d="M143 707v-48h-47v48h47zM-44 -193h-16v43h19q66 0 101.5 31.5t35.5 114.5v524h47v-525q0 -106 -49 -147t-138 -41z" />
    <glyph glyph-name="k" unicode="k" horiz-adv-x="524" 
d="M445 0l-249 246l-90 -94v-152h-46v707h46v-496l292 309h58l-231 -242l279 -278h-59z" />
    <glyph glyph-name="l" unicode="l" 
d="M106 707v-707h-46v707h46z" />
    <glyph glyph-name="m" unicode="m" horiz-adv-x="884" 
d="M647 530q35 0 66.5 -11t59.5 -35t44.5 -67t16.5 -101v-316h-46v321q0 84 -41 125.5t-104 41.5q-71 0 -116.5 -49t-56.5 -119v-320h-46v321q0 83 -43 125t-105 42q-72 0 -115.5 -51.5t-54.5 -116.5v-320h-46v520h46v-127q7 42 52.5 89.5t122.5 47.5q59 0 109.5 -34
t70.5 -103q17 54 66.5 95.5t119.5 41.5z" />
    <glyph glyph-name="n" unicode="n" horiz-adv-x="556" 
d="M306 530q85 0 142.5 -57t57.5 -169v-304h-47v306q0 88 -45.5 135t-114.5 47q-81 0 -130.5 -52t-62.5 -113v-323h-46v520h46v-126q5 15 17.5 35t35.5 44t62 40.5t85 16.5z" />
    <glyph glyph-name="o" unicode="o" horiz-adv-x="598" 
d="M299 530q63 0 121.5 -29t100.5 -92.5t42 -148.5t-42 -148.5t-100.5 -92.5t-121.5 -29t-121.5 29t-100.5 92.5t-42 148.5t42 148.5t100.5 92.5t121.5 29zM299 488q-82 0 -150 -60.5t-68 -167.5t68 -167.5t150 -60.5t149.5 60.5t67.5 167.5t-67.5 167.5t-149.5 60.5z" />
    <glyph glyph-name="p" unicode="p" horiz-adv-x="620" 
d="M323 530q100 0 181 -72.5t81 -197.5t-81 -197.5t-181 -72.5q-70 0 -128 36t-83 93h-5v-119h-1v-190h-46v337h1v373h46v-119h5q25 57 83 93t128 36zM321 32q84 0 151 60.5t67 167.5t-67 167.5t-151 60.5q-83 0 -149.5 -60.5t-66.5 -167.5t66.5 -167.5t149.5 -60.5z" />
    <glyph glyph-name="q" unicode="q" horiz-adv-x="617" 
d="M556 147h1v-337h-46v190h-1v119h-5q-25 -57 -83 -93t-128 -36q-100 0 -181 72.5t-81 197.5t81 197.5t181 72.5q70 0 128 -36t83 -93h5v119h46v-373zM296 32q83 0 149.5 60.5t66.5 167.5t-66.5 167.5t-149.5 60.5q-84 0 -151 -60.5t-67 -167.5t67 -167.5t151 -60.5z" />
    <glyph glyph-name="r" unicode="r" horiz-adv-x="355" 
d="M307 528q13 0 18 -1v-43q-6 1 -18 1q-77 0 -132.5 -53t-68.5 -146v-286h-46v520h46v-148q10 62 66 109t135 47z" />
    <glyph glyph-name="s" unicode="s" horiz-adv-x="406" 
d="M315 412q-37 78 -120 78q-47 0 -76 -25t-29 -65q0 -67 90 -99l45 -16q77 -26 114 -59t37 -91q0 -69 -52 -107t-121 -38q-68 0 -116.5 36t-61.5 99l39 10q13 -50 51.5 -77.5t88.5 -27.5q51 0 89.5 26.5t38.5 76.5q0 42 -27.5 67t-82.5 44l-57 20q-119 42 -119 136
q0 56 42.5 93t106.5 37q56 0 97 -28t61 -76z" />
    <glyph glyph-name="t" unicode="t" horiz-adv-x="296" 
d="M256 479h-109v-394q0 -49 48 -49q29 0 59 15v-41q-35 -16 -68 -16q-38 0 -61.5 19.5t-23.5 58.5v407h-71v41h71v133h46v-133h109v-41z" />
    <glyph glyph-name="u" unicode="u" horiz-adv-x="550" 
d="M244 -10q-85 0 -142.5 57t-57.5 169v304h47v-306q0 -88 45.5 -135t114.5 -47q81 0 130.5 52t62.5 113v323h46v-520h-46v126q-5 -15 -17.5 -35t-35.5 -44t-62 -40.5t-85 -16.5z" />
    <glyph glyph-name="v" unicode="v" horiz-adv-x="541" 
d="M516 520l-229 -520h-33l-229 520h49l197 -452l196 452h49z" />
    <glyph glyph-name="w" unicode="w" horiz-adv-x="918" 
d="M846 520h47l-206 -520h-33l-195 467l-195 -467h-32l-207 520h47l177 -450l188 450h44l188 -450z" />
    <glyph glyph-name="x" unicode="x" horiz-adv-x="519" 
d="M433 0l-173 230l-174 -230h-56l203 265l-194 255h54l167 -219l167 219h53l-194 -255l203 -265h-56z" />
    <glyph glyph-name="y" unicode="y" horiz-adv-x="541" 
d="M467 520h49l-313 -710h-47l91 205l-222 505h49l197 -452z" />
    <glyph glyph-name="z" unicode="z" horiz-adv-x="497" 
d="M472 520l-364 -477h357v-43h-440l364 478h-334v42h417z" />
    <glyph glyph-name="braceleft" unicode="{" horiz-adv-x="252" 
d="M207 745v-42h-35q-16 0 -25.5 -10t-9.5 -26v-293l-39 -68l39 -66v-292q0 -16 9.5 -26t25.5 -10h35v-42h-45q-31 0 -51.5 21t-20.5 53v291l-45 71l45 73v292q0 32 20.5 53t51.5 21h45z" />
    <glyph glyph-name="bar" unicode="|" horiz-adv-x="193" 
d="M118 800v-990h-43v990h43z" />
    <glyph glyph-name="braceright" unicode="}" horiz-adv-x="252" 
d="M45 745h45q31 0 51.5 -21t20.5 -53v-292l45 -73l-45 -71v-291q0 -32 -20.5 -53t-51.5 -21h-45v42h35q16 0 25.5 10t9.5 26v292l39 66l-39 68v293q0 16 -9.5 26t-25.5 10h-35v42z" />
    <glyph glyph-name="asciitilde" unicode="~" horiz-adv-x="460" 
d="M144 343q37 0 66 -17.5l55.5 -34.5t56.5 -17q32 0 48 14.5t16 33.5h29q0 -44 -26.5 -66t-68.5 -22q-46 0 -96 35.5t-87 35.5q-33 0 -49 -17.5t-15 -36.5h-28q0 44 28.5 68t70.5 24z" />
    <glyph glyph-name="exclamdown" unicode="&#xa1;" horiz-adv-x="153" 
d="M90 530q14 0 22.5 -8.5t8.5 -21.5t-8.5 -22t-22.5 -9t-22 9t-8 22t8 21.5t22 8.5zM116 -180h-51v521h51v-521z" />
    <glyph glyph-name="cent" unicode="&#xa2;" horiz-adv-x="550" 
d="M307 106q55 2 101 27.5t72 71.5l40 -14q-32 -60 -88 -92t-125 -34v-105h-33v106q-95 10 -167 79.5t-72 183.5t72 184t167 80v107h33v-106q69 -2 125 -34t88 -91l-40 -15q-26 46 -71.5 71.5t-101.5 27.5v-447zM81 329q0 -96 58 -154t135 -67v443q-77 -9 -135 -67t-58 -155
z" />
    <glyph glyph-name="sterling" unicode="&#xa3;" horiz-adv-x="545" 
d="M500 478h-46v18q0 83 -48.5 127.5t-116.5 44.5q-66 0 -114 -40.5t-48 -113.5q0 -21 6 -46.5t11 -39t19 -46.5t17 -41h177v-38h-163q13 -41 13 -76q0 -107 -98 -185h383v-42h-447v42q116 86 116 186q0 36 -13 75h-90v38h75q-3 6 -14 31.5t-15 36.5t-11 32t-9.5 38.5
t-2.5 36.5q0 86 58 140t150 54q94 0 152.5 -58t58.5 -156v-18z" />
    <glyph glyph-name="currency" unicode="&#xa4;" horiz-adv-x="563" 
d="M507 476q0 -76 -46 -136l47 -47l-42 -41l-46 46q-60 -46 -137 -46t-137 47l-47 -47l-41 41l47 47q-46 60 -46 136q0 77 46 137l-47 47l41 41l47 -47q60 46 137 46q76 0 136 -46l47 47l42 -41l-47 -47q46 -60 46 -137zM105 476q0 -73 53 -125.5t125 -52.5t125.5 52.5
t53.5 125.5q0 72 -53.5 125t-125.5 53t-125 -53t-53 -125z" />
    <glyph glyph-name="yen" unicode="&#xa5;" horiz-adv-x="613" 
d="M330 321v-58h136v-36h-136v-70h136v-36h-136v-121h-47v121h-136v36h136v70h-136v36h136v58l-258 379h55l226 -334l227 334h55z" />
    <glyph glyph-name="brokenbar" unicode="&#xa6;" horiz-adv-x="193" 
d="M118 800v-280h-43v280h43zM118 90v-280h-43v280h43z" />
    <glyph glyph-name="section" unicode="&#xa7;" horiz-adv-x="507" 
d="M406 130q66 -51 66 -135q0 -86 -66.5 -135.5t-170.5 -49.5q-72 0 -129.5 28t-70.5 56v126h44v-103q9 -19 54.5 -41.5t102.5 -22.5q80 0 134 38t54 107q0 27 -9.5 49.5t-22 36.5t-37 28.5t-42.5 22l-51 20.5l-59 21q-164 59 -164 185q0 83 72 132q-72 51 -72 138
q0 75 58.5 122t149.5 47q66 0 119.5 -25.5t70.5 -51.5v-128h-44v105q-11 17 -51 37t-94 20q-72 0 -117 -34t-45 -92q0 -96 129 -143l61 -23q46 -17 75 -31.5t60 -37.5t46 -55.5t15 -74.5q0 -87 -66 -136zM215 218l61 -23q58 -22 88 -38q60 39 60 111q0 27 -9.5 49.5
t-22 36.5t-37 28.5t-42.5 22l-51 20.5l-59 21q-39 15 -50 21q-67 -34 -67 -106q0 -96 129 -143z" />
    <glyph glyph-name="dieresis" unicode="&#xa8;" horiz-adv-x="259" 
d="M46 701v-47h-46v47h46zM259 701v-47h-47v47h47z" />
    <glyph glyph-name="copyright" unicode="&#xa9;" horiz-adv-x="786" 
d="M393 707q87 0 166 -44.5t130.5 -127.5t51.5 -185t-51.5 -185t-130.5 -127.5t-166 -44.5t-166 44.5t-130.5 127.5t-51.5 185t51.5 185t130.5 127.5t166 44.5zM393 39q115 0 208 88t93 223t-93 223t-208 88t-208 -88t-93 -223t93 -223t208 -88zM401 172q70 0 116 50l30 -35
q-63 -60 -146 -60q-87 0 -152.5 64t-65.5 159t65.5 159t152.5 64q83 0 146 -60l-30 -35q-46 50 -116 50q-66 0 -119.5 -51t-53.5 -127t53.5 -127t119.5 -51z" />
    <glyph glyph-name="ordfeminine" unicode="&#xaa;" horiz-adv-x="378" 
d="M172 705q65 0 94 -35.5t30 -111.5v-96q0 -31 4.5 -44t17.5 -31h-47q-16 24 -15 51q-42 -54 -104 -54q-53 0 -85 25t-32 73q0 78 118 91l102 11q-3 82 -83 82q-62 0 -103 -43l-24 25q42 57 127 57zM255 548l-100 -12q-78 -9 -78 -54q0 -28 20 -43.5t55 -15.5q36 0 64.5 23
t38.5 43v59z" />
    <glyph glyph-name="guillemotleft" unicode="&#xab;" horiz-adv-x="375" 
d="M40 310l145 144l19 -20l-129 -140l129 -139l-19 -20l-145 144v31zM186 310l145 144l19 -20l-129 -140l129 -139l-19 -20l-145 144v31z" />
    <glyph glyph-name="logicalnot" unicode="&#xac;" horiz-adv-x="474" 
d="M429 302v-153h-47v116h-337v37h384z" />
    <glyph glyph-name="uni00AD" unicode="&#xad;" horiz-adv-x="400" 
d="M355 301v-37h-310v37h310z" />
    <glyph glyph-name="registered" unicode="&#xae;" horiz-adv-x="786" 
d="M393 707q87 0 166 -44.5t130.5 -127.5t51.5 -185t-51.5 -185t-130.5 -127.5t-166 -44.5t-166 44.5t-130.5 127.5t-51.5 185t51.5 185t130.5 127.5t166 44.5zM393 39q115 0 208 88t93 223t-93 223t-208 88t-208 -88t-93 -223t93 -223t208 -88zM391 552q65 0 104.5 -35
t39.5 -89q0 -47 -27.5 -79.5t-71.5 -41.5l119 -151h-49l-116 149h-88v-149h-40v396h129zM392 514h-90v-172h90q49 0 75.5 22t26.5 63q0 39 -27 63t-75 24z" />
    <glyph glyph-name="macron" unicode="&#xaf;" horiz-adv-x="362" 
d="M362 700v-41h-362v41h362z" />
    <glyph glyph-name="degree" unicode="&#xb0;" horiz-adv-x="382" 
d="M191 710q61 0 103.5 -42.5t42.5 -102.5q0 -61 -42.5 -104t-103.5 -43t-103.5 43t-42.5 104q0 60 42.5 102.5t103.5 42.5zM191 671q-45 0 -75.5 -30t-30.5 -76t30.5 -76.5t75.5 -30.5q44 0 75 30.5t31 76.5t-31 76t-75 30z" />
    <glyph glyph-name="plusminus" unicode="&#xb1;" horiz-adv-x="409" 
d="M178 112v148h-148v38h148v147h37v-147h149v-38h-149v-148h-37zM45 38h335v-37h-335v37z" />
    <glyph glyph-name="uni00B2" unicode="&#xb2;" horiz-adv-x="261" 
d="M129 704q34 0 59 -22.5t25 -52.5q0 -26 -14.5 -47t-53.5 -61l-47 -49h118v-32h-168v32l68 69q28 29 36.5 38.5t15.5 22.5t7 27q0 18 -14 31t-32 13q-19 0 -33 -13t-14 -37v-14h-37v14q0 35 24.5 58t59.5 23z" />
    <glyph glyph-name="uni00B3" unicode="&#xb3;" horiz-adv-x="263" 
d="M131 703q32 0 56 -20.5t24 -47.5q0 -32 -30 -53q42 -18 42 -66q0 -34 -27.5 -57t-64.5 -23q-40 0 -66.5 27t-24.5 64h38q0 -24 14.5 -41.5t38.5 -17.5q22 0 38 13.5t16 34.5q0 48 -74 48v29q63 0 63 42q0 16 -12.5 26.5t-30.5 10.5q-22 0 -34.5 -14.5t-12.5 -40.5h-37
q-1 38 23 62t61 24z" />
    <glyph glyph-name="acute" unicode="&#xb4;" horiz-adv-x="121" 
d="M121 740l-89 -159h-32l66 159h55z" />
    <glyph glyph-name="uni00B5" unicode="&#xb5;" horiz-adv-x="551" 
d="M444 520h46v-520h-46v126q-5 -15 -17.5 -35t-35.5 -44t-62 -40.5t-85 -16.5q-92 0 -148 63v-243h-46v342q-6 28 -6 64v304h52v-358q13 -64 55 -97t100 -33q81 0 130.5 52t62.5 113v323z" />
    <glyph glyph-name="paragraph" unicode="&#xb6;" horiz-adv-x="705" 
d="M74 482q0 94 64.5 156t178.5 62h218v-700h-47v263h-171q-115 0 -179 61t-64 158zM588 700h47v-700h-47v700zM488 307v348h-173q-89 0 -141.5 -46t-52.5 -127t52.5 -128t141.5 -47h173z" />
    <glyph glyph-name="periodcentered" unicode="&#xb7;" horiz-adv-x="153" 
d="M65 241q-14 0 -22 8.5t-8 21.5t8 22t22 9t22.5 -9t8.5 -22t-8.5 -21.5t-22.5 -8.5z" />
    <glyph glyph-name="cedilla" unicode="&#xb8;" horiz-adv-x="149" 
d="M62 -47q35 1 61 -21.5t26 -59.5q0 -46 -44 -69.5t-105 -12.5l10 24q42 -6 68.5 12.5t26.5 45.5q0 29 -24 45t-53 1l-19 21l51 61h47z" />
    <glyph glyph-name="uni00B9" unicode="&#xb9;" horiz-adv-x="213" 
d="M132 701v-261h-37v221l-17 -11l-18 31l35 20h37z" />
    <glyph glyph-name="ordmasculine" unicode="&#xba;" horiz-adv-x="378" 
d="M189 705q59 0 106.5 -43.5t47.5 -116.5t-47.5 -117t-106.5 -44t-106.5 44t-47.5 117t47.5 116.5t106.5 43.5zM189 666q-45 0 -79 -32t-34 -89t34 -89t79 -32t79 32t34 89t-34 89t-79 32z" />
    <glyph glyph-name="guillemotright" unicode="&#xbb;" horiz-adv-x="375" 
d="M189 310v-31l-145 -144l-19 20l129 139l-129 140l19 20zM335 310v-31l-145 -144l-19 20l129 139l-129 140l19 20z" />
    <glyph glyph-name="onequarter" unicode="&#xbc;" horiz-adv-x="569" 
d="M100 701v-261h-37v221l-17 -11l-18 31l35 20h37zM503 700l-430 -700h-48l436 700h42zM517 261v-154h27v-31h-27v-76h-37v76h-132l132 185h37zM480 202l-65 -95h65v95z" />
    <glyph glyph-name="onehalf" unicode="&#xbd;" horiz-adv-x="544" 
d="M100 701v-261h-37v221l-17 -11l-18 31l35 20h37zM503 700l-430 -700h-48l436 700h42zM432 264q34 0 59 -22.5t25 -52.5q0 -26 -14.5 -47t-53.5 -61l-47 -49h118v-32h-168v32l68 69q28 29 36.5 38.5t15.5 22.5t7 27q0 18 -14 31t-32 13q-19 0 -33 -13t-14 -37v-14h-37v14
q0 35 24.5 58t59.5 23z" />
    <glyph glyph-name="threequarters" unicode="&#xbe;" horiz-adv-x="587" 
d="M116 703q32 0 56 -20.5t24 -47.5q0 -32 -30 -53q42 -18 42 -66q0 -34 -27.5 -57t-64.5 -23q-40 0 -66.5 27t-24.5 64h38q0 -24 14.5 -41.5t38.5 -17.5q22 0 38 13.5t16 34.5q0 48 -74 48v29q63 0 63 42q0 16 -12.5 26.5t-30.5 10.5q-22 0 -34.5 -14.5t-12.5 -40.5h-37
q-1 38 23 62t61 24zM531 700l-430 -700h-48l436 700h42zM535 261v-154h27v-31h-27v-76h-37v76h-132l132 185h37zM498 202l-65 -95h65v95z" />
    <glyph glyph-name="questiondown" unicode="&#xbf;" horiz-adv-x="493" 
d="M255 530q14 0 22 -8.5t8 -21.5t-8 -22t-22 -9t-22.5 9t-8.5 22t8.5 21.5t22.5 8.5zM246 -190q-91 0 -148.5 53t-57.5 136q0 47 19.5 83t47.5 59.5l56 45.5t47.5 52t19.5 67v35h48v-30q0 -45 -19.5 -79.5t-47.5 -57l-56.5 -44.5t-48 -55t-19.5 -76q0 -69 44 -107.5
t115 -38.5q72 0 116 43.5t44 132.5h47q0 -104 -56 -161.5t-151 -57.5z" />
    <glyph glyph-name="Agrave" unicode="&#xc0;" horiz-adv-x="688" 
d="M364 761h-32l-89 159h55zM618 0l-82 188h-384l-82 -188h-50l305 700h37l306 -700h-50zM169 229h350l-175 402z" />
    <glyph glyph-name="Aacute" unicode="&#xc1;" horiz-adv-x="688" 
d="M450 920l-89 -159h-32l66 159h55zM618 0l-82 188h-384l-82 -188h-50l305 700h37l306 -700h-50zM169 229h350l-175 402z" />
    <glyph glyph-name="Acircumflex" unicode="&#xc2;" horiz-adv-x="688" 
d="M344 905l-117 -129l-20 19l122 150h31l122 -150l-20 -19zM618 0l-82 188h-384l-82 -188h-50l305 700h37l306 -700h-50zM169 229h350l-175 402z" />
    <glyph glyph-name="Atilde" unicode="&#xc3;" horiz-adv-x="688" 
d="M267 863q-30 0 -45 -17.5t-14 -36.5h-28q0 42 27.5 66t61.5 24q27 0 49.5 -10.5t36 -23t31.5 -23t35 -10.5q30 0 45 15t15 33h29q0 -43 -26 -65.5t-62 -22.5q-26 0 -48 11t-35 24.5t-32 24.5t-40 11zM618 0l-82 188h-384l-82 -188h-50l305 700h37l306 -700h-50zM169 229
h350l-175 402z" />
    <glyph glyph-name="Adieresis" unicode="&#xc4;" horiz-adv-x="688" 
d="M261 881v-47h-46v47h46zM474 881v-47h-47v47h47zM618 0l-82 188h-384l-82 -188h-50l305 700h37l306 -700h-50zM169 229h350l-175 402z" />
    <glyph glyph-name="Aring" unicode="&#xc5;" horiz-adv-x="688" 
d="M345 782q-34 0 -57 23t-23 55t23 54.5t57 22.5q32 0 55 -23t23 -54q0 -32 -23 -55t-55 -23zM344 902q-17 0 -30 -12.5t-13 -29.5q0 -18 13 -30.5t30 -12.5t29.5 12.5t12.5 30.5q0 17 -12.5 29.5t-29.5 12.5zM618 0l-82 188h-384l-82 -188h-50l305 700h37l306 -700h-50z
M169 229h350l-175 402z" />
    <glyph glyph-name="AE" unicode="&#xc6;" horiz-adv-x="946" 
d="M547 45h354v-45h-401v233h-266l-159 -233h-55l479 700h393v-45h-345v-281h273v-45h-273v-284zM263 275h237v347z" />
    <glyph glyph-name="Ccedilla" unicode="&#xc7;" horiz-adv-x="667" 
d="M377 -47q35 1 61 -21.5t26 -59.5q0 -46 -44 -69.5t-105 -12.5l10 24q42 -6 68.5 12.5t26.5 45.5q0 29 -24 45t-53 1l-19 21l44 53q-129 13 -226 114t-97 244q0 77 31 145t80.5 114.5t113.5 73.5t130 27q128 0 230 -83l-31 -35q-84 72 -195 72q-120 0 -215.5 -90
t-95.5 -224t95.5 -224t215.5 -90q112 0 196 72l32 -33q-98 -81 -219 -85z" />
    <glyph glyph-name="Egrave" unicode="&#xc8;" horiz-adv-x="506" 
d="M283 761h-32l-89 159h55zM107 45h354v-45h-401v700h392v-45h-345v-281h273v-45h-273v-284z" />
    <glyph glyph-name="Eacute" unicode="&#xc9;" horiz-adv-x="506" 
d="M369 920l-89 -159h-32l66 159h55zM107 45h354v-45h-401v700h392v-45h-345v-281h273v-45h-273v-284z" />
    <glyph glyph-name="Ecircumflex" unicode="&#xca;" horiz-adv-x="506" 
d="M263 905l-117 -129l-20 19l122 150h31l122 -150l-20 -19zM107 45h354v-45h-401v700h392v-45h-345v-281h273v-45h-273v-284z" />
    <glyph glyph-name="Edieresis" unicode="&#xcb;" horiz-adv-x="506" 
d="M180 881v-47h-46v47h46zM393 881v-47h-47v47h47zM107 45h354v-45h-401v700h392v-45h-345v-281h273v-45h-273v-284z" />
    <glyph glyph-name="Igrave" unicode="&#xcc;" 
d="M-17 920h55l66 -159h-32zM107 700v-700h-47v700h47z" />
    <glyph glyph-name="Iacute" unicode="&#xcd;" 
d="M190 920l-89 -159h-32l66 159h55zM107 700v-700h-47v700h47z" />
    <glyph glyph-name="Icircumflex" unicode="&#xce;" 
d="M100 945l122 -150l-20 -19l-118 129l-117 -129l-20 19l122 150h31zM107 700v-700h-47v700h47z" />
    <glyph glyph-name="Idieresis" unicode="&#xcf;" 
d="M1 881v-47h-46v47h46zM214 881v-47h-47v47h47zM107 700v-700h-47v700h47z" />
    <glyph glyph-name="Eth" unicode="&#xd0;" horiz-adv-x="642" 
d="M250 700q154 0 253.5 -101t99.5 -251q0 -147 -100 -247.5t-253 -100.5h-184v332h-59v37h59v331h184zM249 45q137 0 222 87t85 216q0 132 -85 219.5t-222 87.5h-136v-286h204v-37h-204v-287h136z" />
    <glyph glyph-name="Ntilde" unicode="&#xd1;" horiz-adv-x="673" 
d="M262 899q27 0 49.5 -10.5t36 -23t31.5 -23t35 -10.5q30 0 45 15t15 33h29q0 -43 -26 -65.5t-62 -22.5q-33 0 -58.5 18l-48.5 35.5t-48 17.5q-30 0 -45 -17.5t-14 -36.5h-28q0 42 27.5 66t61.5 24zM60 0v700h47l452 -616h7v616h47v-700h-47l-452 616h-7v-616h-47z" />
    <glyph glyph-name="Ograve" unicode="&#xd2;" horiz-adv-x="800" 
d="M299 920h55l66 -159h-32zM400 710q88 0 169 -44.5t133.5 -129t52.5 -186.5t-52.5 -186.5t-133.5 -129t-169 -44.5q-89 0 -169.5 44.5t-133 128.5t-52.5 187t52.5 187t133 128.5t169.5 44.5zM400 36q118 0 212.5 89.5t94.5 224.5t-94.5 224.5t-212.5 89.5t-212.5 -89.5
t-94.5 -224.5t94.5 -224.5t212.5 -89.5z" />
    <glyph glyph-name="Oacute" unicode="&#xd3;" horiz-adv-x="800" 
d="M506 920l-89 -159h-32l66 159h55zM400 710q88 0 169 -44.5t133.5 -129t52.5 -186.5t-52.5 -186.5t-133.5 -129t-169 -44.5q-89 0 -169.5 44.5t-133 128.5t-52.5 187t52.5 187t133 128.5t169.5 44.5zM400 36q118 0 212.5 89.5t94.5 224.5t-94.5 224.5t-212.5 89.5
t-212.5 -89.5t-94.5 -224.5t94.5 -224.5t212.5 -89.5z" />
    <glyph glyph-name="Ocircumflex" unicode="&#xd4;" horiz-adv-x="800" 
d="M416 945l122 -150l-20 -19l-118 129l-117 -129l-20 19l122 150h31zM400 710q88 0 169 -44.5t133.5 -129t52.5 -186.5t-52.5 -186.5t-133.5 -129t-169 -44.5q-89 0 -169.5 44.5t-133 128.5t-52.5 187t52.5 187t133 128.5t169.5 44.5zM400 36q118 0 212.5 89.5t94.5 224.5
t-94.5 224.5t-212.5 89.5t-212.5 -89.5t-94.5 -224.5t94.5 -224.5t212.5 -89.5z" />
    <glyph glyph-name="Otilde" unicode="&#xd5;" horiz-adv-x="800" 
d="M325 899q27 0 49.5 -10.5t36 -23t31.5 -23t35 -10.5q30 0 45 15t15 33h29q0 -43 -26 -65.5t-62 -22.5q-26 0 -48 11t-35 24.5t-32 24.5t-40 11q-30 0 -45 -17.5t-14 -36.5h-28q0 42 27.5 66t61.5 24zM400 710q88 0 169 -44.5t133.5 -129t52.5 -186.5t-52.5 -186.5
t-133.5 -129t-169 -44.5q-89 0 -169.5 44.5t-133 128.5t-52.5 187t52.5 187t133 128.5t169.5 44.5zM400 36q118 0 212.5 89.5t94.5 224.5t-94.5 224.5t-212.5 89.5t-212.5 -89.5t-94.5 -224.5t94.5 -224.5t212.5 -89.5z" />
    <glyph glyph-name="Odieresis" unicode="&#xd6;" horiz-adv-x="800" 
d="M317 881v-47h-46v47h46zM530 881v-47h-47v47h47zM400 710q88 0 169 -44.5t133.5 -129t52.5 -186.5t-52.5 -186.5t-133.5 -129t-169 -44.5q-89 0 -169.5 44.5t-133 128.5t-52.5 187t52.5 187t133 128.5t169.5 44.5zM400 36q118 0 212.5 89.5t94.5 224.5t-94.5 224.5
t-212.5 89.5t-212.5 -89.5t-94.5 -224.5t94.5 -224.5t212.5 -89.5z" />
    <glyph glyph-name="multiply" unicode="&#xd7;" horiz-adv-x="353" 
d="M297 188l-27 -26l-105 105l-105 -105l-26 26l105 105l-105 105l27 27l105 -105l104 104l26 -26l-104 -104z" />
    <glyph glyph-name="Oslash" unicode="&#xd8;" horiz-adv-x="800" 
d="M576 660q80 -47 129.5 -128.5t49.5 -181.5q0 -102 -52.5 -186.5t-133.5 -129t-169 -44.5q-68 0 -131 27l-32 -67h-48l41 86q-83 46 -134 128.5t-51 185.5t52.5 187t133 128.5t169.5 44.5q69 0 138 -30l31 65h48zM93 350q0 -89 43.5 -160t113.5 -112l268 560
q-58 26 -118 26q-118 0 -212.5 -89.5t-94.5 -224.5zM400 36q118 0 212.5 89.5t94.5 224.5q0 86 -41.5 156t-109.5 112l-267 -559q55 -23 111 -23z" />
    <glyph glyph-name="Ugrave" unicode="&#xd9;" horiz-adv-x="608" 
d="M203 920h55l66 -159h-32zM501 700h47v-443q0 -127 -68 -197t-176 -70t-176 70t-68 197v443h47v-442q0 -107 54.5 -164.5t142.5 -57.5q89 0 143 57.5t54 164.5v442z" />
    <glyph glyph-name="Uacute" unicode="&#xda;" horiz-adv-x="608" 
d="M410 920l-89 -159h-32l66 159h55zM501 700h47v-443q0 -127 -68 -197t-176 -70t-176 70t-68 197v443h47v-442q0 -107 54.5 -164.5t142.5 -57.5q89 0 143 57.5t54 164.5v442z" />
    <glyph glyph-name="Ucircumflex" unicode="&#xdb;" horiz-adv-x="608" 
d="M320 945l122 -150l-20 -19l-118 129l-117 -129l-20 19l122 150h31zM501 700h47v-443q0 -127 -68 -197t-176 -70t-176 70t-68 197v443h47v-442q0 -107 54.5 -164.5t142.5 -57.5q89 0 143 57.5t54 164.5v442z" />
    <glyph glyph-name="Udieresis" unicode="&#xdc;" horiz-adv-x="608" 
d="M221 881v-47h-46v47h46zM434 881v-47h-47v47h47zM501 700h47v-443q0 -127 -68 -197t-176 -70t-176 70t-68 197v443h47v-442q0 -107 54.5 -164.5t142.5 -57.5q89 0 143 57.5t54 164.5v442z" />
    <glyph glyph-name="Yacute" unicode="&#xdd;" horiz-adv-x="613" 
d="M412 920l-89 -159h-32l66 159h55zM588 700l-258 -379v-321h-47v321l-258 379h55l226 -334l227 334h55z" />
    <glyph glyph-name="Thorn" unicode="&#xde;" horiz-adv-x="575" 
d="M289 565q115 0 183 -58.5t68 -154.5q0 -101 -67 -157t-184 -56h-182v-139h-47v700h47v-135h182zM291 182q99 0 150.5 43t51.5 127q0 78 -53 124.5t-149 46.5h-184v-341h184z" />
    <glyph glyph-name="germandbls" unicode="&#xdf;" horiz-adv-x="574" 
d="M276 700q101 0 162 -45.5t61 -122.5q0 -119 -109 -148q75 -17 112 -65t37 -116q0 -102 -66.5 -152.5t-190.5 -50.5h-96v43h98q208 0 208 160q0 76 -55 117.5t-162 41.5h-89v41h89q88 0 132.5 29.5t44.5 99.5q0 60 -47.5 93t-128.5 33q-170 0 -170 -136v-522h-46v522
q0 81 55.5 129.5t160.5 48.5z" />
    <glyph glyph-name="agrave" unicode="&#xe0;" horiz-adv-x="620" 
d="M199 740h55l66 -159h-32zM297 -10q-100 0 -181 72.5t-81 197.5t81 197.5t181 72.5q70 0 128 -36t83 -93h5v119h46v-520h-46v119h-5q-25 -57 -83 -93t-128 -36zM299 32q83 0 149.5 60.5t66.5 167.5t-66.5 167.5t-149.5 60.5q-84 0 -151 -60.5t-67 -167.5t67 -167.5
t151 -60.5z" />
    <glyph glyph-name="aacute" unicode="&#xe1;" horiz-adv-x="620" 
d="M406 740l-89 -159h-32l66 159h55zM297 -10q-100 0 -181 72.5t-81 197.5t81 197.5t181 72.5q70 0 128 -36t83 -93h5v119h46v-520h-46v119h-5q-25 -57 -83 -93t-128 -36zM299 32q83 0 149.5 60.5t66.5 167.5t-66.5 167.5t-149.5 60.5q-84 0 -151 -60.5t-67 -167.5
t67 -167.5t151 -60.5z" />
    <glyph glyph-name="acircumflex" unicode="&#xe2;" horiz-adv-x="620" 
d="M316 765l122 -150l-20 -19l-118 129l-117 -129l-20 19l122 150h31zM297 -10q-100 0 -181 72.5t-81 197.5t81 197.5t181 72.5q70 0 128 -36t83 -93h5v119h46v-520h-46v119h-5q-25 -57 -83 -93t-128 -36zM299 32q83 0 149.5 60.5t66.5 167.5t-66.5 167.5t-149.5 60.5
q-84 0 -151 -60.5t-67 -167.5t67 -167.5t151 -60.5z" />
    <glyph glyph-name="atilde" unicode="&#xe3;" horiz-adv-x="620" 
d="M225 719q27 0 49.5 -10.5t36 -23t31.5 -23t35 -10.5q30 0 45 15t15 33h29q0 -43 -26 -65.5t-62 -22.5q-26 0 -48 11t-35 24.5t-32 24.5t-40 11q-30 0 -45 -17.5t-14 -36.5h-28q0 42 27.5 66t61.5 24zM297 -10q-100 0 -181 72.5t-81 197.5t81 197.5t181 72.5q70 0 128 -36
t83 -93h5v119h46v-520h-46v119h-5q-25 -57 -83 -93t-128 -36zM299 32q83 0 149.5 60.5t66.5 167.5t-66.5 167.5t-149.5 60.5q-84 0 -151 -60.5t-67 -167.5t67 -167.5t151 -60.5z" />
    <glyph glyph-name="adieresis" unicode="&#xe4;" horiz-adv-x="620" 
d="M217 701v-47h-46v47h46zM430 701v-47h-47v47h47zM297 -10q-100 0 -181 72.5t-81 197.5t81 197.5t181 72.5q70 0 128 -36t83 -93h5v119h46v-520h-46v119h-5q-25 -57 -83 -93t-128 -36zM299 32q83 0 149.5 60.5t66.5 167.5t-66.5 167.5t-149.5 60.5q-84 0 -151 -60.5
t-67 -167.5t67 -167.5t151 -60.5z" />
    <glyph glyph-name="aring" unicode="&#xe5;" horiz-adv-x="620" 
d="M301 757q32 0 55 -23t23 -54q0 -32 -23 -55t-55 -23q-34 0 -57 23t-23 55t23 54.5t57 22.5zM300 722q-17 0 -30 -12.5t-13 -29.5q0 -18 13 -30.5t30 -12.5t29.5 12.5t12.5 30.5q0 17 -12.5 29.5t-29.5 12.5zM297 -10q-100 0 -181 72.5t-81 197.5t81 197.5t181 72.5
q70 0 128 -36t83 -93h5v119h46v-520h-46v119h-5q-25 -57 -83 -93t-128 -36zM299 32q83 0 149.5 60.5t66.5 167.5t-66.5 167.5t-149.5 60.5q-84 0 -151 -60.5t-67 -167.5t67 -167.5t151 -60.5z" />
    <glyph glyph-name="ae" unicode="&#xe6;" horiz-adv-x="1068" 
d="M775 530q46 0 92 -18t86 -52t62 -91.5t17 -128.5h-470q6 -99 71.5 -153.5t152.5 -54.5q115 0 173 71l30 -26q-67 -87 -203 -87q-68 0 -129 29.5t-98 85.5v-105h-46v119h-5q-25 -57 -83 -93t-128 -36q-100 0 -181 72.5t-81 197.5t81 197.5t181 72.5q70 0 128 -36t83 -93h5
v119h46v-106q37 56 96 86t120 30zM299 32q83 0 149.5 60.5t66.5 167.5t-66.5 167.5t-149.5 60.5q-84 0 -151 -60.5t-67 -167.5t67 -167.5t151 -60.5zM775 488q-76 0 -141.5 -55t-71.5 -153h428q-2 66 -37.5 115t-82 71t-95.5 22z" />
    <glyph glyph-name="ccedilla" unicode="&#xe7;" horiz-adv-x="550" 
d="M300 32q58 0 105.5 26t74.5 75l40 -15q-30 -58 -84 -91t-120 -37l-36 -37q35 1 61 -21.5t26 -59.5q0 -46 -44 -69.5t-105 -12.5l10 24q42 -6 68.5 12.5t26.5 45.5q0 29 -24 45t-53 1l-19 21l44 53q-94 11 -165 81.5t-71 185.5q0 85 42 149t101 93t122 29q71 0 129.5 -33
t90.5 -95l-40 -15q-27 49 -74.5 75t-105.5 26q-83 0 -151 -60.5t-68 -168.5q0 -106 68 -166.5t151 -60.5z" />
    <glyph glyph-name="egrave" unicode="&#xe8;" horiz-adv-x="588" 
d="M315 581h-32l-89 159h55zM295 530q46 0 92 -18t86 -52t62 -91.5t17 -128.5h-470q6 -99 71.5 -153.5t152.5 -54.5q115 0 173 71l30 -26q-67 -87 -203 -87q-109 0 -190 71.5t-81 198.5q0 85 41.5 148.5t99 92.5t119.5 29zM295 488q-76 0 -141.5 -55t-71.5 -153h428
q-2 66 -37.5 115t-82 71t-95.5 22z" />
    <glyph glyph-name="eacute" unicode="&#xe9;" horiz-adv-x="588" 
d="M401 740l-89 -159h-32l66 159h55zM295 530q46 0 92 -18t86 -52t62 -91.5t17 -128.5h-470q6 -99 71.5 -153.5t152.5 -54.5q115 0 173 71l30 -26q-67 -87 -203 -87q-109 0 -190 71.5t-81 198.5q0 85 41.5 148.5t99 92.5t119.5 29zM295 488q-76 0 -141.5 -55t-71.5 -153h428
q-2 66 -37.5 115t-82 71t-95.5 22z" />
    <glyph glyph-name="ecircumflex" unicode="&#xea;" horiz-adv-x="588" 
d="M295 725l-117 -129l-20 19l122 150h31l122 -150l-20 -19zM295 530q46 0 92 -18t86 -52t62 -91.5t17 -128.5h-470q6 -99 71.5 -153.5t152.5 -54.5q115 0 173 71l30 -26q-67 -87 -203 -87q-109 0 -190 71.5t-81 198.5q0 85 41.5 148.5t99 92.5t119.5 29zM295 488
q-76 0 -141.5 -55t-71.5 -153h428q-2 66 -37.5 115t-82 71t-95.5 22z" />
    <glyph glyph-name="edieresis" unicode="&#xeb;" horiz-adv-x="588" 
d="M212 701v-47h-46v47h46zM425 701v-47h-47v47h47zM295 530q46 0 92 -18t86 -52t62 -91.5t17 -128.5h-470q6 -99 71.5 -153.5t152.5 -54.5q115 0 173 71l30 -26q-67 -87 -203 -87q-109 0 -190 71.5t-81 198.5q0 85 41.5 148.5t99 92.5t119.5 29zM295 488q-76 0 -141.5 -55
t-71.5 -153h428q-2 66 -37.5 115t-82 71t-95.5 22z" />
    <glyph glyph-name="igrave" unicode="&#xec;" 
d="M-17 740h55l66 -159h-32zM106 520v-520h-46v520h46z" />
    <glyph glyph-name="iacute" unicode="&#xed;" 
d="M190 740l-89 -159h-32l66 159h55zM106 520v-520h-46v520h46z" />
    <glyph glyph-name="icircumflex" unicode="&#xee;" 
d="M100 765l122 -150l-20 -19l-118 129l-117 -129l-20 19l122 150h31zM106 520v-520h-46v520h46z" />
    <glyph glyph-name="idieresis" unicode="&#xef;" 
d="M1 701v-47h-46v47h46zM214 701v-47h-47v47h47zM106 520v-520h-46v520h46z" />
    <glyph glyph-name="eth" unicode="&#xf0;" horiz-adv-x="583" 
d="M382 588q69 -90 105 -167.5t36 -168.5q0 -122 -71 -192t-178 -70q-100 0 -169.5 70t-69.5 192q0 126 64 197t175 71q95 0 143 -51l-85 112l-105 -14v30l84 12l-69 91h53l66 -85l85 12v-30zM274 33q85 0 143.5 56.5t58.5 162.5q0 114 -53 169.5t-149 55.5
q-91 0 -141.5 -55.5t-50.5 -169.5q0 -105 56.5 -162t135.5 -57z" />
    <glyph glyph-name="ntilde" unicode="&#xf1;" horiz-adv-x="556" 
d="M213 719q27 0 49.5 -10.5t36 -23t31.5 -23t35 -10.5q30 0 45 15t15 33h29q0 -43 -26 -65.5t-62 -22.5q-26 0 -48 11t-35 24.5t-32 24.5t-40 11q-30 0 -45 -17.5t-14 -36.5h-28q0 42 27.5 66t61.5 24zM306 530q85 0 142.5 -57t57.5 -169v-304h-47v306q0 88 -45.5 135
t-114.5 47q-81 0 -130.5 -52t-62.5 -113v-323h-46v520h46v-126q5 15 17.5 35t35.5 44t62 40.5t85 16.5z" />
    <glyph glyph-name="ograve" unicode="&#xf2;" horiz-adv-x="598" 
d="M198 740h55l66 -159h-32zM299 530q63 0 121.5 -29t100.5 -92.5t42 -148.5t-42 -148.5t-100.5 -92.5t-121.5 -29t-121.5 29t-100.5 92.5t-42 148.5t42 148.5t100.5 92.5t121.5 29zM299 488q-82 0 -150 -60.5t-68 -167.5t68 -167.5t150 -60.5t149.5 60.5t67.5 167.5
t-67.5 167.5t-149.5 60.5z" />
    <glyph glyph-name="oacute" unicode="&#xf3;" horiz-adv-x="598" 
d="M405 740l-89 -159h-32l66 159h55zM299 530q63 0 121.5 -29t100.5 -92.5t42 -148.5t-42 -148.5t-100.5 -92.5t-121.5 -29t-121.5 29t-100.5 92.5t-42 148.5t42 148.5t100.5 92.5t121.5 29zM299 488q-82 0 -150 -60.5t-68 -167.5t68 -167.5t150 -60.5t149.5 60.5
t67.5 167.5t-67.5 167.5t-149.5 60.5z" />
    <glyph glyph-name="ocircumflex" unicode="&#xf4;" horiz-adv-x="598" 
d="M315 765l122 -150l-20 -19l-118 129l-117 -129l-20 19l122 150h31zM299 530q63 0 121.5 -29t100.5 -92.5t42 -148.5t-42 -148.5t-100.5 -92.5t-121.5 -29t-121.5 29t-100.5 92.5t-42 148.5t42 148.5t100.5 92.5t121.5 29zM299 488q-82 0 -150 -60.5t-68 -167.5t68 -167.5
t150 -60.5t149.5 60.5t67.5 167.5t-67.5 167.5t-149.5 60.5z" />
    <glyph glyph-name="otilde" unicode="&#xf5;" horiz-adv-x="598" 
d="M224 719q27 0 49.5 -10.5t36 -23t31.5 -23t35 -10.5q30 0 45 15t15 33h29q0 -43 -26 -65.5t-62 -22.5q-33 0 -58.5 18l-48.5 35.5t-48 17.5q-30 0 -45 -17.5t-14 -36.5h-28q0 42 27.5 66t61.5 24zM299 530q63 0 121.5 -29t100.5 -92.5t42 -148.5t-42 -148.5t-100.5 -92.5
t-121.5 -29t-121.5 29t-100.5 92.5t-42 148.5t42 148.5t100.5 92.5t121.5 29zM299 488q-82 0 -150 -60.5t-68 -167.5t68 -167.5t150 -60.5t149.5 60.5t67.5 167.5t-67.5 167.5t-149.5 60.5z" />
    <glyph glyph-name="odieresis" unicode="&#xf6;" horiz-adv-x="598" 
d="M216 701v-47h-46v47h46zM429 701v-47h-47v47h47zM299 530q63 0 121.5 -29t100.5 -92.5t42 -148.5t-42 -148.5t-100.5 -92.5t-121.5 -29t-121.5 29t-100.5 92.5t-42 148.5t42 148.5t100.5 92.5t121.5 29zM299 488q-82 0 -150 -60.5t-68 -167.5t68 -167.5t150 -60.5
t149.5 60.5t67.5 167.5t-67.5 167.5t-149.5 60.5z" />
    <glyph glyph-name="divide" unicode="&#xf7;" horiz-adv-x="425" 
d="M200 383q-14 0 -22 8.5t-8 21.5t8 22t22 9t22.5 -9t8.5 -22t-8.5 -21.5t-22.5 -8.5zM380 301v-37h-335v37h335zM200 98q-14 0 -22 8.5t-8 21.5t8 22t22 9t22.5 -9t8.5 -22t-8.5 -21.5t-22.5 -8.5z" />
    <glyph glyph-name="oslash" unicode="&#xf8;" horiz-adv-x="598" 
d="M431 494q59 -34 95.5 -93.5t36.5 -140.5q0 -85 -42 -148.5t-100.5 -92.5t-121.5 -29q-49 0 -100 20l-29 -60h-45l38 79q-58 34 -93 92.5t-35 138.5q0 85 42 148.5t100.5 92.5t121.5 29q49 0 95 -18l32 66h45zM81 260q0 -129 100 -193l195 406q-39 15 -77 15
q-82 0 -150 -60.5t-68 -167.5zM299 32q82 0 149.5 60.5t67.5 167.5q0 132 -104 195l-195 -406q38 -17 82 -17z" />
    <glyph glyph-name="ugrave" unicode="&#xf9;" horiz-adv-x="550" 
d="M172 740h55l66 -159h-32zM244 -10q-85 0 -142.5 57t-57.5 169v304h47v-306q0 -88 45.5 -135t114.5 -47q81 0 130.5 52t62.5 113v323h46v-520h-46v126q-5 -15 -17.5 -35t-35.5 -44t-62 -40.5t-85 -16.5z" />
    <glyph glyph-name="uacute" unicode="&#xfa;" horiz-adv-x="550" 
d="M379 740l-89 -159h-32l66 159h55zM244 -10q-85 0 -142.5 57t-57.5 169v304h47v-306q0 -88 45.5 -135t114.5 -47q81 0 130.5 52t62.5 113v323h46v-520h-46v126q-5 -15 -17.5 -35t-35.5 -44t-62 -40.5t-85 -16.5z" />
    <glyph glyph-name="ucircumflex" unicode="&#xfb;" horiz-adv-x="550" 
d="M289 765l122 -150l-20 -19l-118 129l-117 -129l-20 19l122 150h31zM244 -10q-85 0 -142.5 57t-57.5 169v304h47v-306q0 -88 45.5 -135t114.5 -47q81 0 130.5 52t62.5 113v323h46v-520h-46v126q-5 -15 -17.5 -35t-35.5 -44t-62 -40.5t-85 -16.5z" />
    <glyph glyph-name="udieresis" unicode="&#xfc;" horiz-adv-x="550" 
d="M190 701v-47h-46v47h46zM403 701v-47h-47v47h47zM244 -10q-85 0 -142.5 57t-57.5 169v304h47v-306q0 -88 45.5 -135t114.5 -47q81 0 130.5 52t62.5 113v323h46v-520h-46v126q-5 -15 -17.5 -35t-35.5 -44t-62 -40.5t-85 -16.5z" />
    <glyph glyph-name="yacute" unicode="&#xfd;" horiz-adv-x="541" 
d="M379 740l-89 -159h-32l66 159h55zM467 520h49l-313 -710h-47l91 205l-222 505h49l197 -452z" />
    <glyph glyph-name="thorn" unicode="&#xfe;" horiz-adv-x="617" 
d="M323 530q100 0 181 -72.5t81 -197.5t-81 -197.5t-181 -72.5q-70 0 -128 36t-83 93h-5v-119h-1v-190h-46v337h1v226h-1v334h46v-187h1v-119h5q25 57 83 93t128 36zM321 32q84 0 151 60.5t67 167.5t-67 167.5t-151 60.5q-83 0 -149.5 -60.5t-66.5 -167.5t66.5 -167.5
t149.5 -60.5z" />
    <glyph glyph-name="ydieresis" unicode="&#xff;" horiz-adv-x="541" 
d="M190 701v-47h-46v47h46zM403 701v-47h-47v47h47zM467 520h49l-313 -710h-47l91 205l-222 505h49l197 -452z" />
    <glyph glyph-name="Amacron" unicode="&#x100;" horiz-adv-x="688" 
d="M525 880v-41h-362v41h362zM618 0l-82 188h-384l-82 -188h-50l305 700h37l306 -700h-50zM169 229h350l-175 402z" />
    <glyph glyph-name="amacron" unicode="&#x101;" horiz-adv-x="620" 
d="M481 700v-41h-362v41h362zM297 -10q-100 0 -181 72.5t-81 197.5t81 197.5t181 72.5q70 0 128 -36t83 -93h5v119h46v-520h-46v119h-5q-25 -57 -83 -93t-128 -36zM299 32q83 0 149.5 60.5t66.5 167.5t-66.5 167.5t-149.5 60.5q-84 0 -151 -60.5t-67 -167.5t67 -167.5
t151 -60.5z" />
    <glyph glyph-name="Abreve" unicode="&#x102;" horiz-adv-x="688" 
d="M344 778q-64 0 -99 40t-37 92h33q6 -38 32 -65.5t71 -27.5q46 0 71.5 27t31.5 66h34q-3 -53 -37.5 -92.5t-99.5 -39.5zM618 0l-82 188h-384l-82 -188h-50l305 700h37l306 -700h-50zM169 229h350l-175 402z" />
    <glyph glyph-name="abreve" unicode="&#x103;" horiz-adv-x="620" 
d="M437 730q-3 -53 -37.5 -92.5t-99.5 -39.5q-64 0 -99 40t-37 92h33q6 -38 32 -65.5t71 -27.5q46 0 71.5 27t31.5 66h34zM297 -10q-100 0 -181 72.5t-81 197.5t81 197.5t181 72.5q70 0 128 -36t83 -93h5v119h46v-520h-46v119h-5q-25 -57 -83 -93t-128 -36zM299 32
q83 0 149.5 60.5t66.5 167.5t-66.5 167.5t-149.5 60.5q-84 0 -151 -60.5t-67 -167.5t67 -167.5t151 -60.5z" />
    <glyph glyph-name="Aogonek" unicode="&#x104;" horiz-adv-x="699" 
d="M546 -122q0 -30 25.5 -44t58.5 -5l11 -27q-17 -8 -40.5 -8.5t-45.5 6.5t-37.5 27t-15.5 50q0 41 36 73t91 50h-11l-82 188h-384l-82 -188h-50l305 700h37l306 -700h11q-71 -29 -102 -57.5t-31 -64.5zM169 229h350l-175 402z" />
    <glyph glyph-name="aogonek" unicode="&#x105;" horiz-adv-x="617" 
d="M513 520h46v-520h-3q-72 -27 -99.5 -54t-27.5 -62q0 -33 24 -47.5t58 -6.5l11 -28q-17 -8 -40.5 -8.5t-45.5 6.5t-37.5 27t-15.5 50q0 43 35 76.5t92 46.5h3v119h-5q-25 -57 -83 -93t-128 -36q-100 0 -181 72.5t-81 197.5t81 197.5t181 72.5q70 0 128 -36t83 -93h5v119z
M299 32q83 0 149.5 60.5t66.5 167.5t-66.5 167.5t-149.5 60.5q-84 0 -151 -60.5t-67 -167.5t67 -167.5t151 -60.5z" />
    <glyph glyph-name="Cacute" unicode="&#x106;" horiz-adv-x="667" 
d="M470 920l-89 -159h-32l66 159h55zM632 75q-102 -85 -232 -85q-66 0 -130 27t-113.5 73.5t-80.5 114.5t-31 145t31 145t80.5 114.5t113.5 73.5t130 27q128 0 230 -83l-31 -35q-84 72 -195 72q-120 0 -215.5 -90t-95.5 -224t95.5 -224t215.5 -90q112 0 196 72z" />
    <glyph glyph-name="cacute" unicode="&#x107;" horiz-adv-x="550" 
d="M398 740l-89 -159h-32l66 159h55zM300 530q71 0 129.5 -33t90.5 -95l-40 -15q-27 49 -74.5 75t-105.5 26q-83 0 -151 -60.5t-68 -168.5q0 -106 68 -166.5t151 -60.5q58 0 105.5 26t74.5 75l40 -15q-32 -62 -90.5 -95t-129.5 -33q-100 0 -182.5 72.5t-82.5 196.5
q0 85 42 149t101 93t122 29z" />
    <glyph glyph-name="Cdotaccent" unicode="&#x10a;" horiz-adv-x="667" 
d="M386 881v-47h-46v47h46zM632 75q-102 -85 -232 -85q-66 0 -130 27t-113.5 73.5t-80.5 114.5t-31 145t31 145t80.5 114.5t113.5 73.5t130 27q128 0 230 -83l-31 -35q-84 72 -195 72q-120 0 -215.5 -90t-95.5 -224t95.5 -224t215.5 -90q112 0 196 72z" />
    <glyph glyph-name="cdotaccent" unicode="&#x10b;" horiz-adv-x="550" 
d="M314 701v-47h-46v47h46zM300 530q71 0 129.5 -33t90.5 -95l-40 -15q-27 49 -74.5 75t-105.5 26q-83 0 -151 -60.5t-68 -168.5q0 -106 68 -166.5t151 -60.5q58 0 105.5 26t74.5 75l40 -15q-32 -62 -90.5 -95t-129.5 -33q-100 0 -182.5 72.5t-82.5 196.5q0 85 42 149
t101 93t122 29z" />
    <glyph glyph-name="Ccaron" unicode="&#x10c;" horiz-adv-x="667" 
d="M380 776h-31l-122 150l20 19l117 -129l118 129l20 -19zM632 75q-102 -85 -232 -85q-66 0 -130 27t-113.5 73.5t-80.5 114.5t-31 145t31 145t80.5 114.5t113.5 73.5t130 27q128 0 230 -83l-31 -35q-84 72 -195 72q-120 0 -215.5 -90t-95.5 -224t95.5 -224t215.5 -90
q112 0 196 72z" />
    <glyph glyph-name="ccaron" unicode="&#x10d;" horiz-adv-x="550" 
d="M308 596h-31l-122 150l20 19l117 -129l118 129l20 -19zM300 530q71 0 129.5 -33t90.5 -95l-40 -15q-27 49 -74.5 75t-105.5 26q-83 0 -151 -60.5t-68 -168.5q0 -106 68 -166.5t151 -60.5q58 0 105.5 26t74.5 75l40 -15q-32 -62 -90.5 -95t-129.5 -33q-100 0 -182.5 72.5
t-82.5 196.5q0 85 42 149t101 93t122 29z" />
    <glyph glyph-name="Dcaron" unicode="&#x10e;" horiz-adv-x="637" 
d="M338 776h-31l-122 150l20 19l117 -129l118 129l20 -19zM244 700q154 0 253.5 -101t99.5 -251q0 -147 -100 -247.5t-253 -100.5h-184v700h184zM243 45q137 0 222 87t85 216q0 132 -85 219.5t-222 87.5h-136v-610h136z" />
    <glyph glyph-name="dcaron" unicode="&#x10f;" horiz-adv-x="707" 
d="M514 520v187h46v-334h-1v-373h-46v119h-5q-25 -57 -83 -93t-128 -36q-100 0 -181 72.5t-81 197.5t81 197.5t181 72.5q70 0 128 -36t83 -93h5v119h1zM648 707h55l-89 -159h-32zM299 32q83 0 149.5 60.5t66.5 167.5t-66.5 167.5t-149.5 60.5q-84 0 -151 -60.5t-67 -167.5
t67 -167.5t151 -60.5z" />
    <glyph glyph-name="Dcroat" unicode="&#x110;" horiz-adv-x="642" 
d="M250 700q154 0 253.5 -101t99.5 -251q0 -147 -100 -247.5t-253 -100.5h-184v332h-59v37h59v331h184zM249 45q137 0 222 87t85 216q0 132 -85 219.5t-222 87.5h-136v-286h204v-37h-204v-287h136z" />
    <glyph glyph-name="dcroat" unicode="&#x111;" horiz-adv-x="621" 
d="M616 634v-39h-56v-222h-1v-373h-46v119h-5q-25 -57 -83 -93t-128 -36q-100 0 -181 72.5t-81 197.5t81 197.5t181 72.5q70 0 128 -36t83 -93h5v119h1v75h-209v39h209v73h46v-73h56zM299 32q83 0 149.5 60.5t66.5 167.5t-66.5 167.5t-149.5 60.5q-84 0 -151 -60.5
t-67 -167.5t67 -167.5t151 -60.5z" />
    <glyph glyph-name="Emacron" unicode="&#x112;" horiz-adv-x="506" 
d="M444 880v-41h-362v41h362zM107 45h354v-45h-401v700h392v-45h-345v-281h273v-45h-273v-284z" />
    <glyph glyph-name="emacron" unicode="&#x113;" horiz-adv-x="588" 
d="M476 700v-41h-362v41h362zM295 530q46 0 92 -18t86 -52t62 -91.5t17 -128.5h-470q6 -99 71.5 -153.5t152.5 -54.5q115 0 173 71l30 -26q-67 -87 -203 -87q-109 0 -190 71.5t-81 198.5q0 85 41.5 148.5t99 92.5t119.5 29zM295 488q-76 0 -141.5 -55t-71.5 -153h428
q-2 66 -37.5 115t-82 71t-95.5 22z" />
    <glyph glyph-name="Edotaccent" unicode="&#x116;" horiz-adv-x="506" 
d="M285 881v-47h-46v47h46zM107 45h354v-45h-401v700h392v-45h-345v-281h273v-45h-273v-284z" />
    <glyph glyph-name="edotaccent" unicode="&#x117;" horiz-adv-x="588" 
d="M317 701v-47h-46v47h46zM295 530q46 0 92 -18t86 -52t62 -91.5t17 -128.5h-470q6 -99 71.5 -153.5t152.5 -54.5q115 0 173 71l30 -26q-67 -87 -203 -87q-109 0 -190 71.5t-81 198.5q0 85 41.5 148.5t99 92.5t119.5 29zM295 488q-76 0 -141.5 -55t-71.5 -153h428
q-2 66 -37.5 115t-82 71t-95.5 22z" />
    <glyph glyph-name="Eogonek" unicode="&#x118;" horiz-adv-x="506" 
d="M461 0q-71 -29 -101.5 -57.5t-30.5 -64.5q0 -30 25.5 -44t58.5 -5l12 -27q-18 -8 -41.5 -8.5t-45.5 6.5t-37.5 27t-15.5 50q0 41 37.5 73t93.5 50h-356v700h392v-45h-345v-281h273v-45h-273v-284h354v-45z" />
    <glyph glyph-name="eogonek" unicode="&#x119;" horiz-adv-x="588" 
d="M295 530q46 0 92 -18t86 -52t62 -91.5t17 -128.5h-470q6 -99 71.5 -153.5t152.5 -54.5q115 0 173 71l30 -26q-46 -59 -120 -77q-72 -27 -99.5 -54t-27.5 -62q0 -33 24.5 -48t57.5 -6l12 -28q-18 -8 -41.5 -8.5t-45.5 6.5t-37.5 27t-15.5 50q0 36 25.5 66t69.5 47h-5
q-109 0 -190 71.5t-81 198.5q0 85 41.5 148.5t99 92.5t119.5 29zM295 488q-76 0 -141.5 -55t-71.5 -153h428q-2 66 -37.5 115t-82 71t-95.5 22z" />
    <glyph glyph-name="Ecaron" unicode="&#x11a;" horiz-adv-x="506" 
d="M279 776h-31l-122 150l20 19l117 -129l118 129l20 -19zM107 45h354v-45h-401v700h392v-45h-345v-281h273v-45h-273v-284z" />
    <glyph glyph-name="ecaron" unicode="&#x11b;" horiz-adv-x="588" 
d="M311 596h-31l-122 150l20 19l117 -129l118 129l20 -19zM295 530q46 0 92 -18t86 -52t62 -91.5t17 -128.5h-470q6 -99 71.5 -153.5t152.5 -54.5q115 0 173 71l30 -26q-67 -87 -203 -87q-109 0 -190 71.5t-81 198.5q0 85 41.5 148.5t99 92.5t119.5 29zM295 488
q-76 0 -141.5 -55t-71.5 -153h428q-2 66 -37.5 115t-82 71t-95.5 22z" />
    <glyph glyph-name="Gbreve" unicode="&#x11e;" horiz-adv-x="770" 
d="M407 778q-64 0 -99 40t-37 92h33q6 -38 32 -65.5t71 -27.5q46 0 71.5 27t31.5 66h34q-3 -53 -37.5 -92.5t-99.5 -39.5zM725 341q5 -157 -90.5 -254t-234.5 -97q-91 0 -172 45t-132 129t-51 186q0 77 31 145t80.5 114.5t113.5 73.5t130 27q127 0 229 -83l-31 -35
q-84 72 -194 72q-120 0 -215.5 -90t-95.5 -224q0 -135 93.5 -224.5t215.5 -89.5q110 0 188.5 68.5t89.5 193.5h-226v43h271z" />
    <glyph glyph-name="gbreve" unicode="&#x11f;" horiz-adv-x="620" 
d="M301 598q-64 0 -99 40t-37 92h33q6 -38 32 -65.5t71 -27.5q46 0 71.5 27t31.5 66h34q-3 -53 -37.5 -92.5t-99.5 -39.5zM513 520h46v-520q0 -56 -21 -97.5t-55 -64.5t-70 -33.5t-74 -10.5q-114 0 -164 45v43q51 -46 164 -46q73 0 123.5 42t50.5 122v119h-5
q-25 -57 -83 -93t-128 -36q-100 0 -181 72.5t-81 197.5t81 197.5t181 72.5q70 0 128 -36t83 -93h5v119zM299 32q83 0 149.5 60.5t66.5 167.5t-66.5 167.5t-149.5 60.5q-84 0 -151 -60.5t-67 -167.5t67 -167.5t151 -60.5z" />
    <glyph glyph-name="Gdotaccent" unicode="&#x120;" horiz-adv-x="770" 
d="M429 881v-47h-46v47h46zM725 341q5 -157 -90.5 -254t-234.5 -97q-91 0 -172 45t-132 129t-51 186q0 77 31 145t80.5 114.5t113.5 73.5t130 27q127 0 229 -83l-31 -35q-84 72 -194 72q-120 0 -215.5 -90t-95.5 -224q0 -135 93.5 -224.5t215.5 -89.5q110 0 188.5 68.5
t89.5 193.5h-226v43h271z" />
    <glyph glyph-name="gdotaccent" unicode="&#x121;" horiz-adv-x="620" 
d="M323 701v-47h-46v47h46zM513 520h46v-520q0 -56 -21 -97.5t-55 -64.5t-70 -33.5t-74 -10.5q-114 0 -164 45v43q51 -46 164 -46q73 0 123.5 42t50.5 122v119h-5q-25 -57 -83 -93t-128 -36q-100 0 -181 72.5t-81 197.5t81 197.5t181 72.5q70 0 128 -36t83 -93h5v119z
M299 32q83 0 149.5 60.5t66.5 167.5t-66.5 167.5t-149.5 60.5q-84 0 -151 -60.5t-67 -167.5t67 -167.5t151 -60.5z" />
    <glyph glyph-name="Gcommaaccent" unicode="&#x122;" horiz-adv-x="770" 
d="M725 341q5 -157 -90.5 -254t-234.5 -97q-91 0 -172 45t-132 129t-51 186q0 77 31 145t80.5 114.5t113.5 73.5t130 27q127 0 229 -83l-31 -35q-84 72 -194 72q-120 0 -215.5 -90t-95.5 -224q0 -135 93.5 -224.5t215.5 -89.5q110 0 188.5 68.5t89.5 193.5h-226v43h271z
M291 -213l71 177h65l-97 -177h-39z" />
    <glyph glyph-name="gcommaaccent" unicode="&#x123;" horiz-adv-x="620" 
d="M414 800l-97 -177h-39l71 177h65zM513 520h46v-520q0 -56 -21 -97.5t-55 -64.5t-70 -33.5t-74 -10.5q-114 0 -164 45v43q51 -46 164 -46q73 0 123.5 42t50.5 122v119h-5q-25 -57 -83 -93t-128 -36q-100 0 -181 72.5t-81 197.5t81 197.5t181 72.5q70 0 128 -36t83 -93h5
v119zM299 32q83 0 149.5 60.5t66.5 167.5t-66.5 167.5t-149.5 60.5q-84 0 -151 -60.5t-67 -167.5t67 -167.5t151 -60.5z" />
    <glyph glyph-name="Hbar" unicode="&#x126;" horiz-adv-x="612" 
d="M505 700h47v-700h-47v319h-398v-319h-47v700h47v-162h398v162zM107 364h398v128h-398v-128z" />
    <glyph glyph-name="hbar" unicode="&#x127;" horiz-adv-x="567" 
d="M317 530q85 0 142.5 -57t57.5 -169v-304h-47v306q0 88 -45.5 135t-114.5 47q-81 0 -130.5 -52t-62.5 -113v-323h-46v581h-71v33h71v93h46v-93h120v-33h-120v-187q5 15 17.5 35t35.5 44t62 40.5t85 16.5z" />
    <glyph glyph-name="Imacron" unicode="&#x12a;" 
d="M265 880v-41h-362v41h362zM107 700v-700h-47v700h47z" />
    <glyph glyph-name="imacron" unicode="&#x12b;" 
d="M265 700v-41h-362v41h362zM106 520v-520h-46v520h46z" />
    <glyph glyph-name="Iogonek" unicode="&#x12e;" horiz-adv-x="166" 
d="M106 0q-71 -29 -101.5 -57.5t-30.5 -64.5q0 -30 25.5 -44t59.5 -5l11 -27q-17 -8 -40.5 -8.5t-46 6.5t-38 27t-15.5 50q0 41 37 73t92 50v700h47v-700z" />
    <glyph glyph-name="iogonek" unicode="&#x12f;" 
d="M97 701v-47h-46v47h46zM-25 -122q0 -30 25.5 -44t58.5 -5l12 -27q-18 -8 -41.5 -8.5t-45.5 6.5t-37.5 27t-15.5 50q0 41 37.5 73t93.5 50h-2v520h46v-520h1q-71 -29 -101.5 -57.5t-30.5 -64.5z" />
    <glyph glyph-name="Idotaccent" unicode="&#x130;" 
d="M106 881v-47h-46v47h46zM107 700v-700h-47v700h47z" />
    <glyph glyph-name="dotlessi" unicode="&#x131;" 
d="M106 520v-520h-46v520h46z" />
    <glyph glyph-name="IJ" unicode="&#x132;" horiz-adv-x="629" 
d="M107 700v-700h-47v700h47zM569 700v-478q0 -120 -52.5 -176t-144.5 -56q-123 0 -175 95l32 27q48 -77 143 -77q73 0 111.5 44t38.5 145v476h47z" />
    <glyph glyph-name="ij" unicode="&#x133;" horiz-adv-x="370" 
d="M106 707v-48h-46v48h46zM310 707v-48h-47v48h47zM106 520v-520h-46v520h46zM123 -193h-16v43h19q66 0 101.5 31.5t35.5 114.5v524h47v-525q0 -106 -49 -147t-138 -41z" />
    <glyph glyph-name="Kcommaaccent" unicode="&#x136;" horiz-adv-x="603" 
d="M248 373l330 -373h-58l-302 341l-111 -118v-223h-47v700h47v-414l388 414h60zM218 -213l71 177h65l-97 -177h-39z" />
    <glyph glyph-name="kcommaaccent" unicode="&#x137;" horiz-adv-x="524" 
d="M225 278l279 -278h-59l-249 246l-90 -94v-152h-46v707h46v-496l292 309h58zM158 -213l71 177h65l-97 -177h-39z" />
    <glyph glyph-name="Lacute" unicode="&#x139;" horiz-adv-x="483" 
d="M204 918l-89 -159h-32l66 159h55zM107 45h336v-45h-383v700h47v-655z" />
    <glyph glyph-name="lacute" unicode="&#x13a;" 
d="M189 927l-89 -159h-32l66 159h55zM106 707v-707h-46v707h46z" />
    <glyph glyph-name="Lcommaaccent" unicode="&#x13b;" horiz-adv-x="483" 
d="M107 45h336v-45h-383v700h47v-655zM149 -213l71 177h65l-97 -177h-39z" />
    <glyph glyph-name="lcommaaccent" unicode="&#x13c;" 
d="M106 707v-707h-46v707h46zM-21 -213l71 177h65l-97 -177h-39z" />
    <glyph glyph-name="Lcaron" unicode="&#x13d;" horiz-adv-x="483" 
d="M107 45h336v-45h-383v700h47v-655zM337 692l-70 -197h-44l69 197h45z" />
    <glyph glyph-name="lcaron" unicode="&#x13e;" horiz-adv-x="336" 
d="M106 707v-707h-46v707h46zM184 503l69 197h45l-70 -197h-44z" />
    <glyph glyph-name="Ldot" unicode="&#x13f;" horiz-adv-x="483" 
d="M107 45h336v-45h-383v700h47v-655zM289 328q-14 0 -22 8.5t-8 21.5t8 22t22 9t22.5 -9t8.5 -22t-8.5 -21.5t-22.5 -8.5z" />
    <glyph glyph-name="ldot" unicode="&#x140;" horiz-adv-x="265" 
d="M106 707v-707h-46v707h46zM207 326q-14 0 -22 8.5t-8 21.5t8 22t22 9t22.5 -9t8.5 -22t-8.5 -21.5t-22.5 -8.5z" />
    <glyph glyph-name="Lslash" unicode="&#x141;" horiz-adv-x="539" 
d="M163 45h336v-45h-383v246l-61 -64v63l61 64v391h47v-341l151 159h1v-62l-152 -160v-251z" />
    <glyph glyph-name="lslash" unicode="&#x142;" horiz-adv-x="321" 
d="M291 519v-63l-108 -114v-342h-46v294l-107 -113v64l107 113v349h46v-301l107 113h1z" />
    <glyph glyph-name="Nacute" unicode="&#x143;" horiz-adv-x="673" 
d="M443 920l-89 -159h-32l66 159h55zM60 0v700h47l452 -616h7v616h47v-700h-47l-452 616h-7v-616h-47z" />
    <glyph glyph-name="nacute" unicode="&#x144;" horiz-adv-x="556" 
d="M394 740l-89 -159h-32l66 159h55zM306 530q85 0 142.5 -57t57.5 -169v-304h-47v306q0 88 -45.5 135t-114.5 47q-81 0 -130.5 -52t-62.5 -113v-323h-46v520h46v-126q5 15 17.5 35t35.5 44t62 40.5t85 16.5z" />
    <glyph glyph-name="Ncommaaccent" unicode="&#x145;" horiz-adv-x="673" 
d="M60 0v700h47l452 -616h7v616h47v-700h-47l-452 616h-7v-616h-47zM233 -213l71 177h65l-97 -177h-39z" />
    <glyph glyph-name="ncommaaccent" unicode="&#x146;" horiz-adv-x="556" 
d="M306 530q85 0 142.5 -57t57.5 -169v-304h-47v306q0 88 -45.5 135t-114.5 47q-81 0 -130.5 -52t-62.5 -113v-323h-46v520h46v-126q5 15 17.5 35t35.5 44t62 40.5t85 16.5zM184 -213l71 177h65l-97 -177h-39z" />
    <glyph glyph-name="Ncaron" unicode="&#x147;" horiz-adv-x="673" 
d="M353 776h-31l-122 150l20 19l117 -129l118 129l20 -19zM60 0v700h47l452 -616h7v616h47v-700h-47l-452 616h-7v-616h-47z" />
    <glyph glyph-name="ncaron" unicode="&#x148;" horiz-adv-x="556" 
d="M304 596h-31l-122 150l20 19l117 -129l118 129l20 -19zM306 530q85 0 142.5 -57t57.5 -169v-304h-47v306q0 88 -45.5 135t-114.5 47q-81 0 -130.5 -52t-62.5 -113v-323h-46v520h46v-126q5 15 17.5 35t35.5 44t62 40.5t85 16.5z" />
    <glyph glyph-name="Eng" unicode="&#x14a;" horiz-adv-x="671" 
d="M565 700h46v-676q0 -120 -52.5 -176t-144.5 -56q-123 0 -175 95l32 27q48 -77 143 -77q72 0 110 42t40 137l-457 595v-611h-47v700h36l468 -613v415h1v198z" />
    <glyph glyph-name="eng" unicode="&#x14b;" horiz-adv-x="556" 
d="M306 530q85 0 142.5 -57t57.5 -169v-309q0 -106 -49 -147t-138 -41h-16v43h19q66 0 101.5 31.5t35.5 114.5v310q0 88 -45.5 135t-114.5 47q-81 0 -130.5 -52t-62.5 -113v-323h-46v520h46v-126q5 15 17.5 35t35.5 44t62 40.5t85 16.5z" />
    <glyph glyph-name="Omacron" unicode="&#x14c;" horiz-adv-x="800" 
d="M581 880v-41h-362v41h362zM400 710q88 0 169 -44.5t133.5 -129t52.5 -186.5t-52.5 -186.5t-133.5 -129t-169 -44.5q-89 0 -169.5 44.5t-133 128.5t-52.5 187t52.5 187t133 128.5t169.5 44.5zM400 36q118 0 212.5 89.5t94.5 224.5t-94.5 224.5t-212.5 89.5t-212.5 -89.5
t-94.5 -224.5t94.5 -224.5t212.5 -89.5z" />
    <glyph glyph-name="omacron" unicode="&#x14d;" horiz-adv-x="598" 
d="M480 700v-41h-362v41h362zM299 530q63 0 121.5 -29t100.5 -92.5t42 -148.5t-42 -148.5t-100.5 -92.5t-121.5 -29t-121.5 29t-100.5 92.5t-42 148.5t42 148.5t100.5 92.5t121.5 29zM299 488q-82 0 -150 -60.5t-68 -167.5t68 -167.5t150 -60.5t149.5 60.5t67.5 167.5
t-67.5 167.5t-149.5 60.5z" />
    <glyph glyph-name="Ohungarumlaut" unicode="&#x150;" horiz-adv-x="800" 
d="M425 920l-89 -159h-32l66 159h55zM557 920l-89 -159h-32l66 159h55zM400 710q88 0 169 -44.5t133.5 -129t52.5 -186.5t-52.5 -186.5t-133.5 -129t-169 -44.5q-89 0 -169.5 44.5t-133 128.5t-52.5 187t52.5 187t133 128.5t169.5 44.5zM400 36q118 0 212.5 89.5t94.5 224.5
t-94.5 224.5t-212.5 89.5t-212.5 -89.5t-94.5 -224.5t94.5 -224.5t212.5 -89.5z" />
    <glyph glyph-name="ohungarumlaut" unicode="&#x151;" horiz-adv-x="598" 
d="M324 740l-89 -159h-32l66 159h55zM456 740l-89 -159h-32l66 159h55zM299 530q63 0 121.5 -29t100.5 -92.5t42 -148.5t-42 -148.5t-100.5 -92.5t-121.5 -29t-121.5 29t-100.5 92.5t-42 148.5t42 148.5t100.5 92.5t121.5 29zM299 488q-82 0 -150 -60.5t-68 -167.5
t68 -167.5t150 -60.5t149.5 60.5t67.5 167.5t-67.5 167.5t-149.5 60.5z" />
    <glyph glyph-name="OE" unicode="&#x152;" horiz-adv-x="1150" 
d="M751 45h354v-45h-401v166q-49 -81 -132 -128.5t-172 -47.5t-169.5 44.5t-133 128.5t-52.5 187t52.5 187t133 128.5t169.5 44.5t172 -47.5t132 -128.5v166h392v-45h-345v-251q0 -3 1 -9.5t1.5 -11.5t0.5 -9h270v-45h-270q0 -17 -3 -33v-251zM400 36q107 0 197.5 75.5
t106.5 194.5v88q-16 119 -106.5 194.5t-197.5 75.5q-118 0 -212.5 -89.5t-94.5 -224.5t94.5 -224.5t212.5 -89.5z" />
    <glyph glyph-name="oe" unicode="&#x153;" horiz-adv-x="1069" 
d="M1032 240h-470v-5q9 -97 73.5 -150t150.5 -53q115 0 173 71l30 -26q-67 -87 -203 -87q-79 0 -147 39.5t-101 112.5q-33 -72 -100.5 -112t-138.5 -40q-63 0 -121.5 29t-100.5 92.5t-42 148.5t42 148.5t100.5 92.5t121.5 29q71 0 139 -40t101 -113q32 73 98.5 113t137.5 40
q46 0 92 -18t86 -52t62 -91.5t17 -128.5zM299 32q78 0 144 55.5t72 154.5v18v18q-6 99 -72 154.5t-144 55.5q-82 0 -150 -60.5t-68 -167.5t68 -167.5t150 -60.5zM775 488q-75 0 -140 -53.5t-73 -149.5v-5h428q-2 66 -37.5 115t-82 71t-95.5 22z" />
    <glyph glyph-name="Racute" unicode="&#x154;" horiz-adv-x="583" 
d="M399 920l-89 -159h-32l66 159h55zM553 0h-54l-195 264q-8 -1 -26 -1h-171v-263h-47v700h218q114 0 178.5 -62t64.5 -156q0 -80 -44 -136.5t-125 -74.5zM107 307h173q89 0 141.5 47t52.5 128t-52.5 127t-141.5 46h-173v-348z" />
    <glyph glyph-name="racute" unicode="&#x155;" horiz-adv-x="355" 
d="M285 740l-89 -159h-32l66 159h55zM307 528q13 0 18 -1v-43q-6 1 -18 1q-77 0 -132.5 -53t-68.5 -146v-286h-46v520h46v-148q10 62 66 109t135 47z" />
    <glyph glyph-name="Rcommaaccent" unicode="&#x156;" horiz-adv-x="583" 
d="M352 271l201 -271h-54l-195 264q-8 -1 -26 -1h-171v-263h-47v700h218q114 0 178.5 -62t64.5 -156q0 -80 -44 -136.5t-125 -74.5zM107 307h173q89 0 141.5 47t52.5 128t-52.5 127t-141.5 46h-173v-348zM188 -213l71 177h65l-97 -177h-39z" />
    <glyph glyph-name="rcommaaccent" unicode="&#x157;" horiz-adv-x="355" 
d="M307 528q13 0 18 -1v-43q-6 1 -18 1q-77 0 -132.5 -53t-68.5 -146v-286h-46v520h46v-148q10 62 66 109t135 47zM-20 -213l71 177h65l-97 -177h-39z" />
    <glyph glyph-name="Rcaron" unicode="&#x158;" horiz-adv-x="583" 
d="M309 776h-31l-122 150l20 19l117 -129l118 129l20 -19zM553 0h-54l-195 264q-8 -1 -26 -1h-171v-263h-47v700h218q114 0 178.5 -62t64.5 -156q0 -80 -44 -136.5t-125 -74.5zM107 307h173q89 0 141.5 47t52.5 128t-52.5 127t-141.5 46h-173v-348z" />
    <glyph glyph-name="rcaron" unicode="&#x159;" horiz-adv-x="355" 
d="M195 596h-31l-122 150l20 19l117 -129l118 129l20 -19zM307 528q13 0 18 -1v-43q-6 1 -18 1q-77 0 -132.5 -53t-68.5 -146v-286h-46v520h46v-148q10 62 66 109t135 47z" />
    <glyph glyph-name="Sacute" unicode="&#x15a;" horiz-adv-x="528" 
d="M372 920l-89 -159h-32l66 159h55zM264 710q77 0 133.5 -42.5t77.5 -105.5l-36 -18q-24 56 -68.5 89.5t-106.5 33.5q-67 0 -110 -35t-43 -93q0 -93 132 -143l52 -20q51 -20 79 -33.5t59.5 -36t45.5 -52.5t14 -70q0 -86 -65.5 -140t-158.5 -54q-84 0 -150 48t-84 123l41 17
q18 -65 70.5 -104.5t122.5 -39.5q73 0 125 41.5t52 107.5q0 26 -9 47t-20.5 34t-36.5 27t-41.5 21t-50.5 20l-60 23q-164 65 -164 184q0 75 57 123t143 48z" />
    <glyph glyph-name="sacute" unicode="&#x15b;" horiz-adv-x="406" 
d="M304 740l-89 -159h-32l66 159h55zM315 412q-37 78 -120 78q-47 0 -76 -25t-29 -65q0 -67 90 -99l45 -16q77 -26 114 -59t37 -91q0 -69 -52 -107t-121 -38q-68 0 -116.5 36t-61.5 99l39 10q13 -50 51.5 -77.5t88.5 -27.5q51 0 89.5 26.5t38.5 76.5q0 42 -27.5 67t-82.5 44
l-57 20q-119 42 -119 136q0 56 42.5 93t106.5 37q56 0 97 -28t61 -76z" />
    <glyph glyph-name="Scedilla" unicode="&#x15e;" horiz-adv-x="528" 
d="M493 184q0 -80 -58 -133t-144 -60l-36 -38q35 1 61 -21.5t26 -59.5q0 -46 -44 -69.5t-105 -12.5l10 24q42 -6 68.5 12.5t26.5 45.5q0 29 -24 45t-53 1l-19 21l44 52q-77 7 -136 53.5t-75 116.5l41 17q18 -65 70.5 -104.5t122.5 -39.5q73 0 125 41.5t52 107.5q0 26 -9 47
t-20.5 34t-36.5 27t-41.5 21t-50.5 20l-60 23q-164 65 -164 184q0 75 57 123t143 48q77 0 133.5 -42.5t77.5 -105.5l-36 -18q-24 56 -68.5 89.5t-106.5 33.5q-67 0 -110 -35t-43 -93q0 -93 132 -143l52 -20q51 -20 79 -33.5t59.5 -36t45.5 -52.5t14 -70z" />
    <glyph glyph-name="scedilla" unicode="&#x15f;" horiz-adv-x="406" 
d="M376 135q0 -66 -47.5 -103.5t-112.5 -41.5l-36 -37q35 1 61 -21.5t26 -59.5q0 -46 -44 -69.5t-105 -12.5l10 24q42 -6 68.5 12.5t26.5 45.5q0 29 -24 45t-53 1l-19 21l44 53q-56 8 -95 42.5t-51 90.5l39 10q13 -50 51.5 -77.5t88.5 -27.5q51 0 89.5 26.5t38.5 76.5
q0 42 -27.5 67t-82.5 44l-57 20q-119 42 -119 136q0 56 42.5 93t106.5 37q56 0 97 -28t61 -76l-38 -14q-37 78 -120 78q-47 0 -76 -25t-29 -65q0 -67 90 -99l45 -16q77 -26 114 -59t37 -91z" />
    <glyph glyph-name="Scaron" unicode="&#x160;" horiz-adv-x="528" 
d="M282 776h-31l-122 150l20 19l117 -129l118 129l20 -19zM264 710q77 0 133.5 -42.5t77.5 -105.5l-36 -18q-24 56 -68.5 89.5t-106.5 33.5q-67 0 -110 -35t-43 -93q0 -93 132 -143l52 -20q51 -20 79 -33.5t59.5 -36t45.5 -52.5t14 -70q0 -86 -65.5 -140t-158.5 -54
q-84 0 -150 48t-84 123l41 17q18 -65 70.5 -104.5t122.5 -39.5q73 0 125 41.5t52 107.5q0 26 -9 47t-20.5 34t-36.5 27t-41.5 21t-50.5 20l-60 23q-164 65 -164 184q0 75 57 123t143 48z" />
    <glyph glyph-name="scaron" unicode="&#x161;" horiz-adv-x="406" 
d="M214 596h-31l-122 150l20 19l117 -129l118 129l20 -19zM315 412q-37 78 -120 78q-47 0 -76 -25t-29 -65q0 -67 90 -99l45 -16q77 -26 114 -59t37 -91q0 -69 -52 -107t-121 -38q-68 0 -116.5 36t-61.5 99l39 10q13 -50 51.5 -77.5t88.5 -27.5q51 0 89.5 26.5t38.5 76.5
q0 42 -27.5 67t-82.5 44l-57 20q-119 42 -119 136q0 56 42.5 93t106.5 37q56 0 97 -28t61 -76z" />
    <glyph glyph-name="uni0162" unicode="&#x162;" horiz-adv-x="539" 
d="M293 0h-1l-45 -47q35 1 61 -21.5t26 -59.5q0 -46 -44 -69.5t-105 -12.5l10 24q42 -6 68.5 12.5t26.5 45.5q0 29 -24 45t-53 1l-19 21l51 61h1v655h-206v45h459v-45h-206v-655z" />
    <glyph glyph-name="uni0163" unicode="&#x163;" horiz-adv-x="296" 
d="M256 479h-109v-394q0 -49 48 -49q29 0 59 15v-41q-26 -12 -51 -15l-40 -42q35 1 61 -21.5t26 -59.5q0 -46 -44 -69.5t-105 -12.5l10 24q42 -6 68.5 12.5t26.5 45.5q0 29 -24 45t-53 1l-19 21l48 58q-57 14 -57 75v407h-71v41h71v133h46v-133h109v-41z" />
    <glyph glyph-name="Tcaron" unicode="&#x164;" horiz-adv-x="539" 
d="M285 776h-31l-122 150l20 19l117 -129l118 129l20 -19zM499 700v-45h-206v-655h-47v655h-206v45h459z" />
    <glyph glyph-name="tcaron" unicode="&#x165;" horiz-adv-x="356" 
d="M316 741l-89 -159h-32l66 159h55zM147 653v-133h109v-41h-109v-394q0 -49 48 -49q29 0 59 15v-41q-35 -16 -68 -16q-38 0 -61.5 19.5t-23.5 58.5v407h-71v41h71v133h46z" />
    <glyph glyph-name="Tbar" unicode="&#x166;" horiz-adv-x="539" 
d="M499 655h-206v-134h157v-46h-157v-475h-47v475h-157v46h157v134h-206v45h459v-45z" />
    <glyph glyph-name="tbar" unicode="&#x167;" horiz-adv-x="296" 
d="M256 479h-109v-83h109v-41h-109v-270q0 -49 48 -49q29 0 59 15v-41q-35 -16 -68 -16q-38 0 -61.5 19.5t-23.5 58.5v283h-71v41h71v83h-71v41h71v133h46v-133h109v-41z" />
    <glyph glyph-name="Utilde" unicode="&#x168;" horiz-adv-x="608" 
d="M229 899q27 0 49.5 -10.5t36 -23t31.5 -23t35 -10.5q30 0 45 15t15 33h29q0 -43 -26 -65.5t-62 -22.5q-26 0 -48 11t-35 24.5t-32 24.5t-40 11q-30 0 -45 -17.5t-14 -36.5h-28q0 42 27.5 66t61.5 24zM501 700h47v-443q0 -127 -68 -197t-176 -70t-176 70t-68 197v443h47
v-442q0 -107 54.5 -164.5t142.5 -57.5q89 0 143 57.5t54 164.5v442z" />
    <glyph glyph-name="utilde" unicode="&#x169;" horiz-adv-x="550" 
d="M198 719q27 0 49.5 -10.5t36 -23t31.5 -23t35 -10.5q30 0 45 15t15 33h29q0 -43 -26 -65.5t-62 -22.5q-33 0 -58.5 18l-48.5 35.5t-48 17.5q-30 0 -45 -17.5t-14 -36.5h-28q0 42 27.5 66t61.5 24zM244 -10q-85 0 -142.5 57t-57.5 169v304h47v-306q0 -88 45.5 -135
t114.5 -47q81 0 130.5 52t62.5 113v323h46v-520h-46v126q-5 -15 -17.5 -35t-35.5 -44t-62 -40.5t-85 -16.5z" />
    <glyph glyph-name="Umacron" unicode="&#x16a;" horiz-adv-x="608" 
d="M485 880v-41h-362v41h362zM501 700h47v-443q0 -127 -68 -197t-176 -70t-176 70t-68 197v443h47v-442q0 -107 54.5 -164.5t142.5 -57.5q89 0 143 57.5t54 164.5v442z" />
    <glyph glyph-name="umacron" unicode="&#x16b;" horiz-adv-x="550" 
d="M454 700v-41h-362v41h362zM244 -10q-85 0 -142.5 57t-57.5 169v304h47v-306q0 -88 45.5 -135t114.5 -47q81 0 130.5 52t62.5 113v323h46v-520h-46v126q-5 -15 -17.5 -35t-35.5 -44t-62 -40.5t-85 -16.5z" />
    <glyph glyph-name="Ubreve" unicode="&#x16c;" horiz-adv-x="608" 
d="M441 910q-3 -53 -37.5 -92.5t-99.5 -39.5q-64 0 -99 40t-37 92h33q6 -38 32 -65.5t71 -27.5q46 0 71.5 27t31.5 66h34zM501 700h47v-443q0 -127 -68 -197t-176 -70t-176 70t-68 197v443h47v-442q0 -107 54.5 -164.5t142.5 -57.5q89 0 143 57.5t54 164.5v442z" />
    <glyph glyph-name="ubreve" unicode="&#x16d;" horiz-adv-x="550" 
d="M410 730q-3 -53 -37.5 -92.5t-99.5 -39.5q-64 0 -99 40t-37 92h33q6 -38 32 -65.5t71 -27.5q46 0 71.5 27t31.5 66h34zM244 -10q-85 0 -142.5 57t-57.5 169v304h47v-306q0 -88 45.5 -135t114.5 -47q81 0 130.5 52t62.5 113v323h46v-520h-46v126q-5 -15 -17.5 -35
t-35.5 -44t-62 -40.5t-85 -16.5z" />
    <glyph glyph-name="Uring" unicode="&#x16e;" horiz-adv-x="608" 
d="M305 937q32 0 55 -23t23 -54q0 -32 -23 -55t-55 -23q-34 0 -57 23t-23 55t23 54.5t57 22.5zM304 902q-17 0 -30 -12.5t-13 -29.5q0 -18 13 -30.5t30 -12.5t29.5 12.5t12.5 30.5q0 17 -12.5 29.5t-29.5 12.5zM501 700h47v-443q0 -127 -68 -197t-176 -70t-176 70t-68 197
v443h47v-442q0 -107 54.5 -164.5t142.5 -57.5q89 0 143 57.5t54 164.5v442z" />
    <glyph glyph-name="uring" unicode="&#x16f;" horiz-adv-x="550" 
d="M274 757q32 0 55 -23t23 -54q0 -32 -23 -55t-55 -23q-34 0 -57 23t-23 55t23 54.5t57 22.5zM273 722q-17 0 -30 -12.5t-13 -29.5q0 -18 13 -30.5t30 -12.5t29.5 12.5t12.5 30.5q0 17 -12.5 29.5t-29.5 12.5zM244 -10q-85 0 -142.5 57t-57.5 169v304h47v-306
q0 -88 45.5 -135t114.5 -47q81 0 130.5 52t62.5 113v323h46v-520h-46v126q-5 -15 -17.5 -35t-35.5 -44t-62 -40.5t-85 -16.5z" />
    <glyph glyph-name="Uhungarumlaut" unicode="&#x170;" horiz-adv-x="608" 
d="M329 920l-89 -159h-32l66 159h55zM461 920l-89 -159h-32l66 159h55zM501 700h47v-443q0 -127 -68 -197t-176 -70t-176 70t-68 197v443h47v-442q0 -107 54.5 -164.5t142.5 -57.5q89 0 143 57.5t54 164.5v442z" />
    <glyph glyph-name="uhungarumlaut" unicode="&#x171;" horiz-adv-x="550" 
d="M298 740l-89 -159h-32l66 159h55zM430 740l-89 -159h-32l66 159h55zM244 -10q-85 0 -142.5 57t-57.5 169v304h47v-306q0 -88 45.5 -135t114.5 -47q81 0 130.5 52t62.5 113v323h46v-520h-46v126q-5 -15 -17.5 -35t-35.5 -44t-62 -40.5t-85 -16.5z" />
    <glyph glyph-name="Uogonek" unicode="&#x172;" horiz-adv-x="608" 
d="M501 700h47v-443q0 -103 -45.5 -169t-123.5 -88h16q-71 -29 -101.5 -57.5t-30.5 -64.5q0 -30 25.5 -44t58.5 -5l12 -27q-18 -8 -41.5 -8.5t-45.5 6.5t-37.5 27t-15.5 50q0 70 106 114q-7 -1 -21 -1q-108 0 -176 70t-68 197v443h47v-442q0 -107 54.5 -164.5t142.5 -57.5
q89 0 143 57.5t54 164.5v442z" />
    <glyph glyph-name="uogonek" unicode="&#x173;" horiz-adv-x="568" 
d="M364 -123q0 -33 26 -47.5t59 -5.5l11 -22q-18 -8 -41 -9t-45 6t-37.5 27t-15.5 50q0 41 35 73.5t92 50.5h-4v126q-5 -15 -17.5 -35t-35.5 -44t-62 -40.5t-85 -16.5q-85 0 -142.5 57t-57.5 169v304h47v-306q0 -88 45.5 -135t114.5 -47q81 0 130.5 52t62.5 113v323h46v-520
h5q-75 -31 -103 -58.5t-28 -64.5z" />
    <glyph glyph-name="Wcircumflex" unicode="&#x174;" horiz-adv-x="968" 
d="M500 945l122 -150l-20 -19l-118 129l-117 -129l-20 19l122 150h31zM943 700l-225 -700h-25l-209 609l-210 -609h-24l-225 700h47l191 -598l208 598h25l208 -598l192 598h47z" />
    <glyph glyph-name="wcircumflex" unicode="&#x175;" horiz-adv-x="918" 
d="M460 725l-117 -129l-20 19l122 150h31l122 -150l-20 -19zM846 520h47l-206 -520h-33l-195 467l-195 -467h-32l-207 520h47l177 -450l188 450h44l188 -450z" />
    <glyph glyph-name="Ycircumflex" unicode="&#x176;" horiz-adv-x="613" 
d="M322 945l122 -150l-20 -19l-118 129l-117 -129l-20 19l122 150h31zM588 700l-258 -379v-321h-47v321l-258 379h55l226 -334l227 334h55z" />
    <glyph glyph-name="ycircumflex" unicode="&#x177;" horiz-adv-x="541" 
d="M273 725l-117 -129l-20 19l122 150h31l122 -150l-20 -19zM467 520h49l-313 -710h-47l91 205l-222 505h49l197 -452z" />
    <glyph glyph-name="Ydieresis" unicode="&#x178;" horiz-adv-x="613" 
d="M223 881v-47h-46v47h46zM436 881v-47h-47v47h47zM588 700l-258 -379v-321h-47v321l-258 379h55l226 -334l227 334h55z" />
    <glyph glyph-name="Zacute" unicode="&#x179;" horiz-adv-x="577" 
d="M391 920l-89 -159h-32l66 159h55zM548 700l-442 -657h446v-43h-527l442 658h-416v42h497z" />
    <glyph glyph-name="zacute" unicode="&#x17a;" horiz-adv-x="497" 
d="M360 740l-89 -159h-32l66 159h55zM472 520l-364 -477h357v-43h-440l364 478h-334v42h417z" />
    <glyph glyph-name="Zdotaccent" unicode="&#x17b;" horiz-adv-x="577" 
d="M307 881v-47h-46v47h46zM548 700l-442 -657h446v-43h-527l442 658h-416v42h497z" />
    <glyph glyph-name="zdotaccent" unicode="&#x17c;" horiz-adv-x="497" 
d="M276 701v-47h-46v47h46zM472 520l-364 -477h357v-43h-440l364 478h-334v42h417z" />
    <glyph glyph-name="Zcaron" unicode="&#x17d;" horiz-adv-x="577" 
d="M301 776h-31l-122 150l20 19l117 -129l118 129l20 -19zM548 700l-442 -657h446v-43h-527l442 658h-416v42h497z" />
    <glyph glyph-name="zcaron" unicode="&#x17e;" horiz-adv-x="497" 
d="M270 596h-31l-122 150l20 19l117 -129l118 129l20 -19zM472 520l-364 -477h357v-43h-440l364 478h-334v42h417z" />
    <glyph glyph-name="florin" unicode="&#x192;" horiz-adv-x="284" 
d="M259 664q-52 0 -74 -23.5t-22 -87.5v-33h96v-43h-96v-513q0 -90 -35 -122t-108 -32v42q52 0 74 23.5t22 87.5v514h-84v43h84v32q0 90 35 122t108 32v-42z" />
    <glyph glyph-name="uni01CD" unicode="&#x1cd;" horiz-adv-x="688" 
d="M360 776h-31l-122 150l20 19l117 -129l118 129l20 -19zM618 0l-82 188h-384l-82 -188h-50l305 700h37l306 -700h-50zM169 229h350l-175 402z" />
    <glyph glyph-name="uni01CE" unicode="&#x1ce;" horiz-adv-x="620" 
d="M316 596h-31l-122 150l20 19l117 -129l118 129l20 -19zM297 -10q-100 0 -181 72.5t-81 197.5t81 197.5t181 72.5q70 0 128 -36t83 -93h5v119h46v-520h-46v119h-5q-25 -57 -83 -93t-128 -36zM299 32q83 0 149.5 60.5t66.5 167.5t-66.5 167.5t-149.5 60.5q-84 0 -151 -60.5
t-67 -167.5t67 -167.5t151 -60.5z" />
    <glyph glyph-name="uni01CF" unicode="&#x1cf;" 
d="M100 776h-31l-122 150l20 19l117 -129l118 129l20 -19zM107 700v-700h-47v700h47z" />
    <glyph glyph-name="uni01D0" unicode="&#x1d0;" 
d="M100 596h-31l-122 150l20 19l117 -129l118 129l20 -19zM106 520v-520h-46v520h46z" />
    <glyph glyph-name="uni01D1" unicode="&#x1d1;" horiz-adv-x="800" 
d="M416 776h-31l-122 150l20 19l117 -129l118 129l20 -19zM400 710q88 0 169 -44.5t133.5 -129t52.5 -186.5t-52.5 -186.5t-133.5 -129t-169 -44.5q-89 0 -169.5 44.5t-133 128.5t-52.5 187t52.5 187t133 128.5t169.5 44.5zM400 36q118 0 212.5 89.5t94.5 224.5t-94.5 224.5
t-212.5 89.5t-212.5 -89.5t-94.5 -224.5t94.5 -224.5t212.5 -89.5z" />
    <glyph glyph-name="uni01D2" unicode="&#x1d2;" horiz-adv-x="598" 
d="M315 596h-31l-122 150l20 19l117 -129l118 129l20 -19zM299 530q63 0 121.5 -29t100.5 -92.5t42 -148.5t-42 -148.5t-100.5 -92.5t-121.5 -29t-121.5 29t-100.5 92.5t-42 148.5t42 148.5t100.5 92.5t121.5 29zM299 488q-82 0 -150 -60.5t-68 -167.5t68 -167.5t150 -60.5
t149.5 60.5t67.5 167.5t-67.5 167.5t-149.5 60.5z" />
    <glyph glyph-name="uni01D3" unicode="&#x1d3;" horiz-adv-x="608" 
d="M320 776h-31l-122 150l20 19l117 -129l118 129l20 -19zM501 700h47v-443q0 -127 -68 -197t-176 -70t-176 70t-68 197v443h47v-442q0 -107 54.5 -164.5t142.5 -57.5q89 0 143 57.5t54 164.5v442z" />
    <glyph glyph-name="uni01D4" unicode="&#x1d4;" horiz-adv-x="550" 
d="M289 596h-31l-122 150l20 19l117 -129l118 129l20 -19zM244 -10q-85 0 -142.5 57t-57.5 169v304h47v-306q0 -88 45.5 -135t114.5 -47q81 0 130.5 52t62.5 113v323h46v-520h-46v126q-5 -15 -17.5 -35t-35.5 -44t-62 -40.5t-85 -16.5z" />
    <glyph glyph-name="uni01EA" unicode="&#x1ea;" horiz-adv-x="800" 
d="M478 -1q-70 -28 -100.5 -56.5t-30.5 -64.5q0 -30 25.5 -44t58.5 -5l12 -27q-18 -8 -41.5 -8.5t-45.5 6.5t-37.5 27t-15.5 50q0 69 104 113h-7q-89 0 -169.5 44.5t-133 128.5t-52.5 187t52.5 187t133 128.5t169.5 44.5q88 0 169 -44.5t133.5 -129t52.5 -186.5
q0 -130 -81 -226.5t-196 -124.5zM93 350q0 -135 94.5 -224.5t212.5 -89.5t212.5 89.5t94.5 224.5t-94.5 224.5t-212.5 89.5t-212.5 -89.5t-94.5 -224.5z" />
    <glyph glyph-name="uni01EB" unicode="&#x1eb;" horiz-adv-x="598" 
d="M363 -2q-69 -28 -98.5 -56.5t-29.5 -63.5q0 -30 25.5 -44t58.5 -5l12 -27q-18 -8 -41.5 -8.5t-45.5 6.5t-37.5 27t-15.5 50q0 69 104 113q-62 1 -120 30.5t-99 92.5t-41 147q0 85 42 148.5t100.5 92.5t121.5 29t121.5 -29t100.5 -92.5t42 -148.5q0 -104 -58 -172
t-142 -90zM81 260q0 -107 68 -167.5t150 -60.5t149.5 60.5t67.5 167.5t-67.5 167.5t-149.5 60.5t-150 -60.5t-68 -167.5z" />
    <glyph glyph-name="Scommaaccent" unicode="&#x218;" horiz-adv-x="528" 
d="M264 710q77 0 133.5 -42.5t77.5 -105.5l-36 -18q-24 56 -68.5 89.5t-106.5 33.5q-67 0 -110 -35t-43 -93q0 -93 132 -143l52 -20q51 -20 79 -33.5t59.5 -36t45.5 -52.5t14 -70q0 -86 -65.5 -140t-158.5 -54q-84 0 -150 48t-84 123l41 17q18 -65 70.5 -104.5t122.5 -39.5
q73 0 125 41.5t52 107.5q0 26 -9 47t-20.5 34t-36.5 27t-41.5 21t-50.5 20l-60 23q-164 65 -164 184q0 75 57 123t143 48zM169 -213l71 177h65l-97 -177h-39z" />
    <glyph glyph-name="scommaaccent" unicode="&#x219;" horiz-adv-x="406" 
d="M315 412q-37 78 -120 78q-47 0 -76 -25t-29 -65q0 -67 90 -99l45 -16q77 -26 114 -59t37 -91q0 -69 -52 -107t-121 -38q-68 0 -116.5 36t-61.5 99l39 10q13 -50 51.5 -77.5t88.5 -27.5q51 0 89.5 26.5t38.5 76.5q0 42 -27.5 67t-82.5 44l-57 20q-119 42 -119 136
q0 56 42.5 93t106.5 37q56 0 97 -28t61 -76zM94 -213l71 177h65l-97 -177h-39z" />
    <glyph glyph-name="uni021A" unicode="&#x21a;" horiz-adv-x="539" 
d="M40 700h459v-45h-206v-655h-47v655h-206v45zM165 -213l71 177h65l-97 -177h-39z" />
    <glyph glyph-name="uni021B" unicode="&#x21b;" horiz-adv-x="296" 
d="M256 479h-109v-394q0 -49 48 -49q29 0 59 15v-41q-35 -16 -68 -16q-38 0 -61.5 19.5t-23.5 58.5v407h-71v41h71v133h46v-133h109v-41zM77 -213l71 177h65l-97 -177h-39z" />
    <glyph glyph-name="uni0237" unicode="&#x237;" horiz-adv-x="203" 
d="M-44 -193h-16v43h19q66 0 101.5 31.5t35.5 114.5v524h47v-525q0 -106 -49 -147t-138 -41z" />
    <glyph glyph-name="circumflex" unicode="&#x2c6;" horiz-adv-x="275" 
d="M153 765l122 -150l-20 -19l-118 129l-117 -129l-20 19l122 150h31z" />
    <glyph glyph-name="caron" unicode="&#x2c7;" horiz-adv-x="275" 
d="M153 596h-31l-122 150l20 19l117 -129l118 129l20 -19z" />
    <glyph glyph-name="breve" unicode="&#x2d8;" horiz-adv-x="273" 
d="M273 730q-3 -53 -37.5 -92.5t-99.5 -39.5q-64 0 -99 40t-37 92h33q6 -38 32 -65.5t71 -27.5q46 0 71.5 27t31.5 66h34z" />
    <glyph glyph-name="dotaccent" unicode="&#x2d9;" horiz-adv-x="46" 
d="M46 701v-47h-46v47h46z" />
    <glyph glyph-name="ring" unicode="&#x2da;" horiz-adv-x="158" 
d="M80 757q32 0 55 -23t23 -54q0 -32 -23 -55t-55 -23q-34 0 -57 23t-23 55t23 54.5t57 22.5zM79 722q-17 0 -30 -12.5t-13 -29.5q0 -18 13 -30.5t30 -12.5t29.5 12.5t12.5 30.5q0 17 -12.5 29.5t-29.5 12.5z" />
    <glyph glyph-name="ogonek" unicode="&#x2db;" horiz-adv-x="176" 
d="M176 0q-71 -29 -101.5 -57.5t-30.5 -64.5q0 -30 25.5 -44t58.5 -5l12 -27q-18 -8 -41.5 -8.5t-45.5 6.5t-37.5 27t-15.5 50q0 41 37.5 73t93.5 50h45z" />
    <glyph glyph-name="tilde" unicode="&#x2dc;" horiz-adv-x="330" 
d="M89 719q27 0 49.5 -10.5t36 -23t31.5 -23t35 -10.5q30 0 45 15t15 33h29q0 -43 -26 -65.5t-62 -22.5q-26 0 -48 11t-35 24.5t-32 24.5t-40 11q-30 0 -45 -17.5t-14 -36.5h-28q0 42 27.5 66t61.5 24z" />
    <glyph glyph-name="hungarumlaut" unicode="&#x2dd;" horiz-adv-x="254" 
d="M121 740l-89 -159h-32l66 159h55zM253 740l-89 -159h-32l66 159h55z" />
    <glyph glyph-name="uni0326" unicode="&#x326;" horiz-adv-x="0" 
d="M-161 -215l71 177h65l-97 -177h-39z" />
    <glyph glyph-name="uni0394" unicode="&#x394;" horiz-adv-x="733" 
d="M376 700l307 -700h-633l307 700h19zM367 615l-250 -572h499z" />
    <glyph glyph-name="uni03A9" unicode="&#x3a9;" horiz-adv-x="784" 
d="M392 707q136 0 241.5 -101t105.5 -249q0 -176 -176 -293v-19h151v-45h-192v88l46 34q124 94 124 235q0 130 -92 218.5t-208 88.5t-208 -88.5t-92 -218.5q0 -141 124 -235l46 -34v-88h-192v45h151v19q-176 117 -176 293q0 148 105.5 249t241.5 101z" />
    <glyph glyph-name="uni03BC" unicode="&#x3bc;" horiz-adv-x="551" 
d="M444 520h46v-520h-46v126q-5 -15 -17.5 -35t-35.5 -44t-62 -40.5t-85 -16.5q-92 0 -148 63v-243h-46v342q-6 28 -6 64v304h52v-358q13 -64 55 -97t100 -33q81 0 130.5 52t62.5 113v323z" />
    <glyph glyph-name="pi" unicode="&#x3c0;" horiz-adv-x="640" 
d="M527 37q32 0 68 18v-43q-36 -18 -66 -18q-91 0 -91 100v384h-241v-478h-47v478h-100v42h534v-42h-99v-386q0 -33 9.5 -44t32.5 -11z" />
    <glyph glyph-name="uni0401" unicode="&#x401;" horiz-adv-x="506" 
d="M170 881v-47h-46v47h46zM383 881v-47h-47v47h47zM107 45h354v-45h-401v700h392v-45h-345v-281h273v-45h-273v-284z" />
    <glyph glyph-name="uni0403" unicode="&#x403;" horiz-adv-x="495" 
d="M368 920l-89 -159h-32l66 159h55zM460 700v-45h-353v-655h-47v700h400z" />
    <glyph glyph-name="uni0404" unicode="&#x404;" horiz-adv-x="667" 
d="M600 108l32 -33q-102 -85 -232 -85q-66 0 -130 27t-113.5 73.5t-80.5 114.5t-31 145t31 145t80.5 114.5t113.5 73.5t130 27q128 0 230 -83l-31 -35q-84 72 -195 72q-115 0 -208 -83t-102 -209h223v-43h-223q8 -127 101.5 -210t208.5 -83q112 0 196 72z" />
    <glyph glyph-name="uni0406" unicode="&#x406;" 
d="M107 700v-700h-47v700h47z" />
    <glyph glyph-name="uni0407" unicode="&#x407;" 
d="M1 881v-47h-46v47h46zM214 881v-47h-47v47h47zM107 700v-700h-47v700h47z" />
    <glyph glyph-name="uni0410" unicode="&#x410;" horiz-adv-x="688" 
d="M618 0l-82 188h-384l-82 -188h-50l305 700h37l306 -700h-50zM169 229h350l-175 402z" />
    <glyph glyph-name="uni0411" unicode="&#x411;" horiz-adv-x="556" 
d="M278 437q115 0 179 -61t64 -158q0 -94 -64.5 -156t-178.5 -62h-218v700h421v-45h-374v-218h171zM280 45q89 0 141.5 46t52.5 127t-52.5 128t-141.5 47h-173v-348h173z" />
    <glyph glyph-name="uni0412" unicode="&#x412;" horiz-adv-x="559" 
d="M365 382q76 -16 117.5 -66.5t41.5 -124.5q0 -90 -62 -140.5t-188 -50.5h-214v700h225q98 0 147.5 -47t49.5 -118q0 -53 -29 -93.5t-88 -59.5zM284 657h-177v-259h173q73 0 114.5 37t41.5 97q0 58 -38.5 91.5t-113.5 33.5zM274 43q203 0 203 152q0 76 -51 119.5t-147 43.5
h-172v-315h167z" />
    <glyph glyph-name="uni0413" unicode="&#x413;" horiz-adv-x="495" 
d="M460 700v-45h-353v-655h-47v700h400z" />
    <glyph glyph-name="uni0414" unicode="&#x414;" horiz-adv-x="750" 
d="M636 45h74v-114h-47v69h-576v-69h-47v114h47q33 61 40.5 168t7.5 347v140h501v-655zM132 45h457v610h-407v-95q0 -166 -2 -240t-13 -153.5t-35 -121.5z" />
    <glyph glyph-name="uni0415" unicode="&#x415;" horiz-adv-x="506" 
d="M107 45h354v-45h-401v700h392v-45h-345v-281h273v-45h-273v-284z" />
    <glyph glyph-name="uni0416" unicode="&#x416;" horiz-adv-x="1039" 
d="M956 0l-302 341l-110 -117v-224h-48v224l-110 117l-302 -341h-58l330 373l-307 327h60l387 -413v413h48v-413l387 413h60l-307 -327l330 -373h-58z" />
    <glyph glyph-name="uni0417" unicode="&#x417;" horiz-adv-x="565" 
d="M279 707q90 0 151 -49.5t61 -123.5q0 -52 -36 -96t-106 -63q78 -13 127 -60.5t49 -118.5q0 -93 -70.5 -149.5t-175.5 -56.5t-172 61t-67 151h48q0 -71 54.5 -119t136.5 -48q84 0 141 42.5t57 118.5q0 74 -62.5 113.5t-161.5 41.5v38q91 4 140.5 45t49.5 100
q0 55 -47 91.5t-117 36.5q-73 0 -120.5 -43.5t-47.5 -120.5h-48q0 94 61 151.5t155 57.5z" />
    <glyph glyph-name="uni0418" unicode="&#x418;" horiz-adv-x="673" 
d="M613 0h-47v616h-7l-452 -616h-47v700h47v-616h7l452 616h47v-700z" />
    <glyph glyph-name="uni0419" unicode="&#x419;" horiz-adv-x="673" 
d="M495 910q-3 -53 -37.5 -92.5t-99.5 -39.5q-64 0 -99 40t-37 92h33q6 -38 32 -65.5t71 -27.5q46 0 71.5 27t31.5 66h34zM613 0h-47v616h-7l-452 -616h-47v700h47v-616h7l452 616h47v-700z" />
    <glyph glyph-name="uni041A" unicode="&#x41a;" horiz-adv-x="603" 
d="M520 0l-302 341l-111 -118v-223h-47v700h47v-414l388 414h60l-307 -327l330 -373h-58z" />
    <glyph glyph-name="uni041B" unicode="&#x41b;" horiz-adv-x="695" 
d="M635 700v-700h-47v655h-406v-584q0 -40 -22 -58.5t-53 -18.5q-46 0 -82 18v43q40 -20 68 -20q22 0 32 9.5t10 36.5v619h500z" />
    <glyph glyph-name="uni041C" unicode="&#x41c;" horiz-adv-x="845" 
d="M785 700v-700h-47v601h-5l-293 -601h-36l-292 601h-5v-601h-47v700h53l309 -638l310 638h53z" />
    <glyph glyph-name="uni041D" unicode="&#x41d;" horiz-adv-x="612" 
d="M505 700h47v-700h-47v319h-398v-319h-47v700h47v-336h398v336z" />
    <glyph glyph-name="uni041E" unicode="&#x41e;" horiz-adv-x="800" 
d="M400 710q88 0 169 -44.5t133.5 -129t52.5 -186.5t-52.5 -186.5t-133.5 -129t-169 -44.5q-89 0 -169.5 44.5t-133 128.5t-52.5 187t52.5 187t133 128.5t169.5 44.5zM400 36q118 0 212.5 89.5t94.5 224.5t-94.5 224.5t-212.5 89.5t-212.5 -89.5t-94.5 -224.5t94.5 -224.5
t212.5 -89.5z" />
    <glyph glyph-name="uni041F" unicode="&#x41f;" horiz-adv-x="610" 
d="M550 700v-700h-47v655h-396v-655h-47v700h490z" />
    <glyph glyph-name="uni0420" unicode="&#x420;" horiz-adv-x="556" 
d="M278 700q114 0 178.5 -62t64.5 -156q0 -97 -64 -158t-179 -61h-171v-263h-47v700h218zM280 307q89 0 141.5 47t52.5 128t-52.5 127t-141.5 46h-173v-348h173z" />
    <glyph glyph-name="uni0421" unicode="&#x421;" horiz-adv-x="667" 
d="M632 75q-102 -85 -232 -85q-66 0 -130 27t-113.5 73.5t-80.5 114.5t-31 145t31 145t80.5 114.5t113.5 73.5t130 27q128 0 230 -83l-31 -35q-84 72 -195 72q-120 0 -215.5 -90t-95.5 -224t95.5 -224t215.5 -90q112 0 196 72z" />
    <glyph glyph-name="uni0422" unicode="&#x422;" horiz-adv-x="539" 
d="M499 700v-45h-206v-655h-47v655h-206v45h459z" />
    <glyph glyph-name="uni0423" unicode="&#x423;" horiz-adv-x="622" 
d="M540 700h52l-386 -700h-52l129 234l-258 466h52l232 -419z" />
    <glyph glyph-name="uni0424" unicode="&#x424;" horiz-adv-x="848" 
d="M464 635q157 0 250.5 -79.5t93.5 -205.5t-93.5 -205.5t-250.5 -79.5h-17v-65h-47v65h-16q-157 0 -250.5 79.5t-93.5 205.5t93.5 205.5t250.5 79.5h16v65h47v-65h17zM384 108h16v485h-16q-141 0 -219 -66t-78 -177t78 -176.5t219 -65.5zM464 108q141 0 219 65.5t78 176.5
t-78 177t-219 66h-17v-485h17z" />
    <glyph glyph-name="uni0425" unicode="&#x425;" horiz-adv-x="624" 
d="M599 0h-57l-230 322l-230 -322h-57l259 362l-242 338h57l213 -298l213 298h56l-241 -338z" />
    <glyph glyph-name="uni0426" unicode="&#x426;" horiz-adv-x="632" 
d="M596 45v-114h-46v69h-490v700h47v-655h396v655h47v-655h46z" />
    <glyph glyph-name="uni0427" unicode="&#x427;" horiz-adv-x="580" 
d="M473 700h47v-700h-47v358q-17 -39 -70 -80.5t-131 -41.5q-94 0 -155.5 51.5t-61.5 154.5v258h47v-258q0 -73 46.5 -116t123.5 -43q76 0 129 44.5t72 95.5v277z" />
    <glyph glyph-name="uni0428" unicode="&#x428;" horiz-adv-x="1054" 
d="M946 700h47v-700h-933v700h47v-655h396v655h47v-655h396v655z" />
    <glyph glyph-name="uni0429" unicode="&#x429;" horiz-adv-x="1075" 
d="M1040 45v-114h-46v69h-934v700h47v-655h396v655h47v-655h396v655h47v-655h47z" />
    <glyph glyph-name="uni042A" unicode="&#x42a;" horiz-adv-x="646" 
d="M369 437q115 0 179 -61t64 -158q0 -94 -64.5 -156t-178.5 -62h-218v655h-121v45h168v-263h171zM371 45q89 0 141.5 46t52.5 127t-52.5 128t-141.5 47h-173v-348h173z" />
    <glyph glyph-name="uni042B" unicode="&#x42b;" horiz-adv-x="733" 
d="M278 437q115 0 179 -61t64 -158q0 -94 -64.5 -156t-178.5 -62h-218v700h47v-263h171zM626 700h47v-700h-47v700zM280 45q89 0 141.5 46t52.5 127t-52.5 128t-141.5 47h-173v-348h173z" />
    <glyph glyph-name="uni042C" unicode="&#x42c;" horiz-adv-x="556" 
d="M278 437q115 0 179 -61t64 -158q0 -94 -64.5 -156t-178.5 -62h-218v700h47v-263h171zM280 45q89 0 141.5 46t52.5 127t-52.5 128t-141.5 47h-173v-348h173z" />
    <glyph glyph-name="uni042D" unicode="&#x42d;" horiz-adv-x="667" 
d="M277 710q66 0 130 -27t113.5 -73.5t80.5 -114.5t31 -145t-31 -145t-80.5 -114.5t-113.5 -73.5t-130 -27q-130 0 -232 85l32 33q84 -72 196 -72q115 0 208.5 83t101.5 210h-223v43h223q-9 126 -102 209t-208 83q-111 0 -195 -72l-31 35q102 83 230 83z" />
    <glyph glyph-name="uni042E" unicode="&#x42e;" horiz-adv-x="984" 
d="M585 710q88 0 169 -44.5t133.5 -129t52.5 -186.5t-52.5 -186.5t-133.5 -129t-169 -44.5q-133 0 -239.5 96.5t-114.5 242.5h-124v-329h-47v700h47v-328h124q5 97 58 175.5t131.5 120.5t164.5 42zM585 36q118 0 212.5 89.5t94.5 224.5t-94.5 224.5t-212.5 89.5
t-212.5 -89.5t-94.5 -224.5t94.5 -224.5t212.5 -89.5z" />
    <glyph glyph-name="uni042F" unicode="&#x42f;" horiz-adv-x="583" 
d="M305 700h218v-700h-47v263h-171q-18 0 -26 1l-195 -264h-54l201 271q-81 18 -125 74.5t-44 136.5q0 94 64.5 156t178.5 62zM303 307h173v348h-173q-89 0 -141.5 -46t-52.5 -127t52.5 -128t141.5 -47z" />
    <glyph glyph-name="uni0430" unicode="&#x430;" horiz-adv-x="620" 
d="M297 -10q-100 0 -181 72.5t-81 197.5t81 197.5t181 72.5q70 0 128 -36t83 -93h5v119h46v-520h-46v119h-5q-25 -57 -83 -93t-128 -36zM299 32q83 0 149.5 60.5t66.5 167.5t-66.5 167.5t-149.5 60.5q-84 0 -151 -60.5t-67 -167.5t67 -167.5t151 -60.5z" />
    <glyph glyph-name="uni0431" unicode="&#x431;" horiz-adv-x="617" 
d="M320 530q100 0 181 -72.5t81 -197.5t-81 -197.5t-181 -72.5q-70 0 -128 36t-83 93h-5v-119h-46v520h2q0 94 43.5 137t146.5 43h112q37 0 51 3t23 17h45q-17 -37 -38.5 -49t-80.5 -12h-112q-79 0 -111.5 -31t-32.5 -108v-119h3q25 57 83 93t128 36zM318 32q84 0 151 60.5
t67 167.5t-67 167.5t-151 60.5q-83 0 -149.5 -60.5t-66.5 -167.5t66.5 -167.5t149.5 -60.5z" />
    <glyph glyph-name="uni0432" unicode="&#x432;" horiz-adv-x="528" 
d="M381 287q57 -17 84.5 -54t27.5 -85q0 -148 -210 -148h-223v520h223q84 0 127.5 -35t43.5 -96q0 -32 -18.5 -60t-54.5 -42zM283 478h-177v-175h179q123 0 123 89q0 40 -31.5 63t-93.5 23zM283 42q91 0 127.5 27.5t36.5 77.5q0 116 -162 116h-179v-221h177z" />
    <glyph glyph-name="uni0433" unicode="&#x433;" horiz-adv-x="466" 
d="M426 520v-42h-320v-478h-46v520h366z" />
    <glyph glyph-name="uni0434" unicode="&#x434;" horiz-adv-x="587" 
d="M514 43h43v-113h-47v70h-434v-70h-46v113h32q29 42 36 120.5t7 256.5v100h409v-477zM106 43h362v435h-317v-58q0 -178 -7.5 -256.5t-37.5 -120.5z" />
    <glyph glyph-name="uni0435" unicode="&#x435;" horiz-adv-x="588" 
d="M295 530q46 0 92 -18t86 -52t62 -91.5t17 -128.5h-470q6 -99 71.5 -153.5t152.5 -54.5q115 0 173 71l30 -26q-67 -87 -203 -87q-109 0 -190 71.5t-81 198.5q0 85 41.5 148.5t99 92.5t119.5 29zM295 488q-76 0 -141.5 -55t-71.5 -153h428q-2 66 -37.5 115t-82 71t-95.5 22
z" />
    <glyph glyph-name="uni0436" unicode="&#x436;" horiz-adv-x="850" 
d="M769 0l-249 251l-72 -72v-179h-46v179l-72 72l-249 -251h-61l280 281l-240 239h59l283 -283v283h46v-283l283 283h59l-240 -239l280 -281h-61z" />
    <glyph glyph-name="uni0437" unicode="&#x437;" horiz-adv-x="486" 
d="M239 529q78 0 126 -41t48 -97q0 -87 -103 -113q60 -8 98 -44t38 -88q0 -69 -59.5 -112.5t-143.5 -43.5q-87 0 -145 50t-58 125h45q0 -57 46.5 -95.5t111.5 -38.5q64 0 110 31t46 83q0 55 -48 83.5t-126 27.5v38q71 1 106.5 28t35.5 70q0 41 -35.5 68.5t-92.5 27.5
q-56 0 -94.5 -31.5t-38.5 -78.5h-45q0 63 51 107t127 44z" />
    <glyph glyph-name="uni0438" unicode="&#x438;" horiz-adv-x="554" 
d="M493 520v-520h-46v421l-379 -421h-8v520h46v-421l380 421h7z" />
    <glyph glyph-name="uni0439" unicode="&#x439;" horiz-adv-x="554" 
d="M414 730q-3 -53 -37.5 -92.5t-99.5 -39.5q-64 0 -99 40t-37 92h33q6 -38 32 -65.5t71 -27.5q46 0 71.5 27t31.5 66h34zM493 520v-520h-46v421l-379 -421h-8v520h46v-421l380 421h7z" />
    <glyph glyph-name="uni043A" unicode="&#x43a;" horiz-adv-x="508" 
d="M427 0l-249 251l-72 -72v-179h-46v520h46v-283l283 283h59l-240 -239l280 -281h-61z" />
    <glyph glyph-name="uni043B" unicode="&#x43b;" horiz-adv-x="609" 
d="M548 520v-520h-46v478h-323v-407q0 -77 -78 -77q-43 0 -76 18v41q40 -18 64 -18t34 10t10 37v438h415z" />
    <glyph glyph-name="uni043C" unicode="&#x43c;" horiz-adv-x="689" 
d="M628 520v-520h-46v389l-238 -389l-238 389v-389h-46v520h11l273 -447l274 447h10z" />
    <glyph glyph-name="uni043D" unicode="&#x43d;" horiz-adv-x="547" 
d="M440 520h46v-520h-46v235h-334v-235h-46v520h46v-242h334v242z" />
    <glyph glyph-name="uni043E" unicode="&#x43e;" horiz-adv-x="598" 
d="M299 530q63 0 121.5 -29t100.5 -92.5t42 -148.5t-42 -148.5t-100.5 -92.5t-121.5 -29t-121.5 29t-100.5 92.5t-42 148.5t42 148.5t100.5 92.5t121.5 29zM299 488q-82 0 -150 -60.5t-68 -167.5t68 -167.5t150 -60.5t149.5 60.5t67.5 167.5t-67.5 167.5t-149.5 60.5z" />
    <glyph glyph-name="uni043F" unicode="&#x43f;" horiz-adv-x="539" 
d="M479 520v-520h-46v478h-327v-478h-46v520h419z" />
    <glyph glyph-name="uni0440" unicode="&#x440;" horiz-adv-x="620" 
d="M323 530q100 0 181 -72.5t81 -197.5t-81 -197.5t-181 -72.5q-70 0 -128 36t-83 93h-5v-119h-1v-190h-46v337h1v373h46v-119h5q25 57 83 93t128 36zM321 32q84 0 151 60.5t67 167.5t-67 167.5t-151 60.5q-83 0 -149.5 -60.5t-66.5 -167.5t66.5 -167.5t149.5 -60.5z" />
    <glyph glyph-name="uni0441" unicode="&#x441;" horiz-adv-x="550" 
d="M300 530q71 0 129.5 -33t90.5 -95l-40 -15q-27 49 -74.5 75t-105.5 26q-83 0 -151 -60.5t-68 -168.5q0 -106 68 -166.5t151 -60.5q58 0 105.5 26t74.5 75l40 -15q-32 -62 -90.5 -95t-129.5 -33q-100 0 -182.5 72.5t-82.5 196.5q0 85 42 149t101 93t122 29z" />
    <glyph glyph-name="uni0442" unicode="&#x442;" horiz-adv-x="427" 
d="M397 520v-42h-160v-478h-46v478h-161v42h367z" />
    <glyph glyph-name="uni0443" unicode="&#x443;" horiz-adv-x="541" 
d="M467 520h49l-313 -710h-47l91 205l-222 505h49l197 -452z" />
    <glyph glyph-name="uni0444" unicode="&#x444;" horiz-adv-x="1067" 
d="M773 530q100 0 181 -72.5t81 -197.5t-81 -197.5t-181 -72.5q-70 0 -128 36t-83 93h-5v-119h-1v-190h-46v309h-5q-25 -57 -83 -93t-128 -36q-100 0 -181 72.5t-81 197.5t81 197.5t181 72.5q70 0 128 -36t83 -93h5v119h1v190h46v-309h5q25 57 83 93t128 36zM296 32
q78 0 142.5 54t72.5 150v48q-8 96 -72.5 150t-142.5 54q-84 0 -151 -60.5t-67 -167.5t67 -167.5t151 -60.5zM771 32q84 0 151 60.5t67 167.5t-67 167.5t-151 60.5q-78 0 -142.5 -54t-72.5 -150v-48q8 -96 72.5 -150t142.5 -54z" />
    <glyph glyph-name="uni0445" unicode="&#x445;" horiz-adv-x="519" 
d="M433 0l-173 230l-174 -230h-56l203 265l-194 255h54l167 -219l167 219h53l-194 -255l203 -265h-56z" />
    <glyph glyph-name="uni0446" unicode="&#x446;" horiz-adv-x="563" 
d="M527 43v-112h-46v69h-421v520h46v-478h327v478h46v-477h48z" />
    <glyph glyph-name="uni0447" unicode="&#x447;" horiz-adv-x="516" 
d="M410 520h46v-520h-46v274q-10 -36 -62.5 -77t-125.5 -41q-34 0 -64 9.5t-56.5 29.5t-41.5 57t-15 87v181h46v-182q0 -68 35.5 -104t99.5 -36q70 0 119 44.5t65 94.5v183z" />
    <glyph glyph-name="uni0448" unicode="&#x448;" horiz-adv-x="753" 
d="M692 520v-520h-632v520h46v-477h247v477h46v-477h247v477h46z" />
    <glyph glyph-name="uni0449" unicode="&#x449;" horiz-adv-x="776" 
d="M741 43v-112h-46v69h-635v520h46v-477h247v477h46v-477h247v477h46v-477h49z" />
    <glyph glyph-name="uni044A" unicode="&#x44a;" horiz-adv-x="562" 
d="M320 301q207 0 207 -150q0 -151 -207 -151h-226v478h-74v42h120v-219h180zM322 43q87 0 123 28.5t36 79.5q0 108 -159 108h-182v-216h182z" />
    <glyph glyph-name="uni044B" unicode="&#x44b;" horiz-adv-x="695" 
d="M286 301q207 0 207 -150q0 -151 -207 -151h-226v520h46v-219h180zM589 520h46v-520h-46v520zM288 43q87 0 123 28.5t36 79.5q0 108 -159 108h-182v-216h182z" />
    <glyph glyph-name="uni044C" unicode="&#x44c;" horiz-adv-x="528" 
d="M286 301q207 0 207 -150q0 -151 -207 -151h-226v520h46v-219h180zM288 43q87 0 123 28.5t36 79.5q0 108 -159 108h-182v-216h182z" />
    <glyph glyph-name="uni044D" unicode="&#x44d;" horiz-adv-x="555" 
d="M255 530q63 0 122 -29t101 -93t42 -149q0 -124 -82.5 -196.5t-182.5 -72.5q-71 0 -129.5 33t-90.5 95l40 15q27 -49 74.5 -75t105.5 -26q79 0 145.5 55.5t72.5 153.5h-188v37h188q-6 99 -72.5 154.5t-145.5 55.5q-58 0 -105.5 -26t-74.5 -75l-40 15q32 62 90.5 95
t129.5 33z" />
    <glyph glyph-name="uni044E" unicode="&#x44e;" horiz-adv-x="778" 
d="M480 530q63 0 121.5 -29t100.5 -92.5t42 -148.5t-42 -148.5t-100.5 -92.5t-121.5 -29q-95 0 -175 66.5t-88 182.5h-111v-239h-46v520h46v-239h111q8 116 88 182.5t175 66.5zM480 32q82 0 149.5 60.5t67.5 167.5t-67.5 167.5t-149.5 60.5t-150 -60.5t-68 -167.5t68 -167.5
t150 -60.5z" />
    <glyph glyph-name="uni044F" unicode="&#x44f;" horiz-adv-x="531" 
d="M470 520v-520h-46v216h-146l-192 -216h-56l195 216q-88 4 -132 45t-44 107q0 69 49 110.5t147 41.5h225zM424 259v219h-181q-148 0 -148 -110q0 -109 148 -109h181z" />
    <glyph glyph-name="uni0451" unicode="&#x451;" horiz-adv-x="588" 
d="M215 701v-47h-46v47h46zM428 701v-47h-47v47h47zM295 530q46 0 92 -18t86 -52t62 -91.5t17 -128.5h-470q6 -99 71.5 -153.5t152.5 -54.5q115 0 173 71l30 -26q-67 -87 -203 -87q-109 0 -190 71.5t-81 198.5q0 85 41.5 148.5t99 92.5t119.5 29zM295 488q-76 0 -141.5 -55
t-71.5 -153h428q-2 66 -37.5 115t-82 71t-95.5 22z" />
    <glyph glyph-name="uni0453" unicode="&#x453;" horiz-adv-x="466" 
d="M359 740l-89 -159h-32l66 159h55zM426 520v-42h-320v-478h-46v520h366z" />
    <glyph glyph-name="uni0454" unicode="&#x454;" horiz-adv-x="550" 
d="M300 32q58 0 105.5 26t74.5 75l40 -15q-32 -62 -90.5 -95t-129.5 -33q-100 0 -182.5 72.5t-82.5 196.5q0 85 42 149t101 93t122 29q71 0 129.5 -33t90.5 -95l-40 -15q-27 49 -74.5 75t-105.5 26q-79 0 -145.5 -55.5t-72.5 -154.5h188v-37h-188q6 -98 72.5 -153.5
t145.5 -55.5z" />
    <glyph glyph-name="uni0456" unicode="&#x456;" 
d="M106 707v-48h-46v48h46zM106 520v-520h-46v520h46z" />
    <glyph glyph-name="uni0457" unicode="&#x457;" 
d="M1 701v-47h-46v47h46zM214 701v-47h-47v47h47zM106 520v-520h-46v520h46z" />
    <glyph glyph-name="uni0490" unicode="&#x490;" horiz-adv-x="495" 
d="M413 747h47v-92h-353v-655h-47v700h353v47z" />
    <glyph glyph-name="uni0491" unicode="&#x491;" horiz-adv-x="466" 
d="M380 566h46v-88h-320v-478h-46v520h320v46z" />
    <glyph glyph-name="Wgrave" unicode="&#x1e80;" horiz-adv-x="968" 
d="M383 920h55l66 -159h-32zM943 700l-225 -700h-25l-209 609l-210 -609h-24l-225 700h47l191 -598l208 598h25l208 -598l192 598h47z" />
    <glyph glyph-name="wgrave" unicode="&#x1e81;" horiz-adv-x="918" 
d="M480 581h-32l-89 159h55zM846 520h47l-206 -520h-33l-195 467l-195 -467h-32l-207 520h47l177 -450l188 450h44l188 -450z" />
    <glyph glyph-name="Wacute" unicode="&#x1e82;" horiz-adv-x="968" 
d="M590 920l-89 -159h-32l66 159h55zM943 700l-225 -700h-25l-209 609l-210 -609h-24l-225 700h47l191 -598l208 598h25l208 -598l192 598h47z" />
    <glyph glyph-name="wacute" unicode="&#x1e83;" horiz-adv-x="918" 
d="M566 740l-89 -159h-32l66 159h55zM846 520h47l-206 -520h-33l-195 467l-195 -467h-32l-207 520h47l177 -450l188 450h44l188 -450z" />
    <glyph glyph-name="Wdieresis" unicode="&#x1e84;" horiz-adv-x="968" 
d="M401 881v-47h-46v47h46zM614 881v-47h-47v47h47zM943 700l-225 -700h-25l-209 609l-210 -609h-24l-225 700h47l191 -598l208 598h25l208 -598l192 598h47z" />
    <glyph glyph-name="wdieresis" unicode="&#x1e85;" horiz-adv-x="918" 
d="M377 701v-47h-46v47h46zM590 701v-47h-47v47h47zM846 520h47l-206 -520h-33l-195 467l-195 -467h-32l-207 520h47l177 -450l188 450h44l188 -450z" />
    <glyph glyph-name="Ygrave" unicode="&#x1ef2;" horiz-adv-x="613" 
d="M205 920h55l66 -159h-32zM588 700l-258 -379v-321h-47v321l-258 379h55l226 -334l227 334h55z" />
    <glyph glyph-name="ygrave" unicode="&#x1ef3;" horiz-adv-x="541" 
d="M293 581h-32l-89 159h55zM467 520h49l-313 -710h-47l91 205l-222 505h49l197 -452z" />
    <glyph glyph-name="endash" unicode="&#x2013;" horiz-adv-x="600" 
d="M555 301v-37h-510v37h510z" />
    <glyph glyph-name="emdash" unicode="&#x2014;" horiz-adv-x="660" 
d="M615 301v-37h-570v37h570z" />
    <glyph glyph-name="quoteleft" unicode="&#x2018;" horiz-adv-x="164" 
d="M139 700l-69 -197h-45l70 197h44z" />
    <glyph glyph-name="quoteright" unicode="&#x2019;" horiz-adv-x="164" 
d="M25 503l69 197h45l-70 -197h-44z" />
    <glyph glyph-name="quotesinglbase" unicode="&#x201a;" horiz-adv-x="174" 
d="M25 -142l69 197h45l-70 -197h-44z" />
    <glyph glyph-name="quotedblleft" unicode="&#x201c;" horiz-adv-x="270" 
d="M139 700l-69 -197h-45l70 197h44zM245 700l-69 -197h-45l70 197h44z" />
    <glyph glyph-name="quotedblright" unicode="&#x201d;" horiz-adv-x="270" 
d="M25 503l69 197h45l-70 -197h-44zM131 503l69 197h45l-70 -197h-44z" />
    <glyph glyph-name="quotedblbase" unicode="&#x201e;" horiz-adv-x="275" 
d="M25 -142l69 197h45l-70 -197h-44zM131 -142l69 197h45l-70 -197h-44z" />
    <glyph glyph-name="dagger" unicode="&#x2020;" horiz-adv-x="296" 
d="M246 557v-36h-79l-7 -209h-23l-7 209h-80v36h79l-5 143h49l-5 -143h78z" />
    <glyph glyph-name="daggerdbl" unicode="&#x2021;" horiz-adv-x="296" 
d="M167 557h79v-36h-80l-6 -147h-23l-6 147h-81v36h80l-6 143h49zM160 326l6 -147h80v-36h-79l6 -143h-49l6 143h-80v36h81l6 147h23z" />
    <glyph glyph-name="bullet" unicode="&#x2022;" horiz-adv-x="161" 
d="M80 246q-14 0 -22 8.5t-8 21.5t8 22t22 9t22.5 -9t8.5 -22t-8.5 -21.5t-22.5 -8.5z" />
    <glyph glyph-name="ellipsis" unicode="&#x2026;" horiz-adv-x="625" 
d="M65 -10q-14 0 -22 8.5t-8 21.5t8 22t22 9t22.5 -9t8.5 -22t-8.5 -21.5t-22.5 -8.5zM312 -10q-14 0 -22 8.5t-8 21.5t8 22t22 9t22.5 -9t8.5 -22t-8.5 -21.5t-22.5 -8.5zM559 -10q-14 0 -22 8.5t-8 21.5t8 22t22 9t22.5 -9t8.5 -22t-8.5 -21.5t-22.5 -8.5z" />
    <glyph glyph-name="perthousand" unicode="&#x2030;" horiz-adv-x="1023" 
d="M159 705q51 0 87.5 -36t36.5 -87t-36.5 -87t-87.5 -36t-87.5 36t-36.5 87t36.5 87t87.5 36zM558 701l35 -25l-454 -676l-36 25zM159 668q-36 0 -61.5 -24.5t-25.5 -61.5t25.5 -61.5t61.5 -24.5t61.5 24.5t25.5 61.5t-25.5 61.5t-61.5 24.5zM539 241q51 0 87.5 -36
t36.5 -87t-36.5 -87t-87.5 -36t-87.5 36t-36.5 87t36.5 87t87.5 36zM864 241q51 0 87.5 -36t36.5 -87t-36.5 -87t-87.5 -36t-87.5 36t-36.5 87t36.5 87t87.5 36zM539 204q-36 0 -61.5 -24.5t-25.5 -61.5t25.5 -61.5t61.5 -24.5t61.5 24.5t25.5 61.5t-25.5 61.5t-61.5 24.5z
M864 204q-36 0 -61.5 -24.5t-25.5 -61.5t25.5 -61.5t61.5 -24.5t61.5 24.5t25.5 61.5t-25.5 61.5t-61.5 24.5z" />
    <glyph glyph-name="guilsinglleft" unicode="&#x2039;" horiz-adv-x="229" 
d="M40 310l145 144l19 -20l-129 -140l129 -139l-19 -20l-145 144v31z" />
    <glyph glyph-name="guilsinglright" unicode="&#x203a;" horiz-adv-x="229" 
d="M189 310v-31l-145 -144l-19 20l129 139l-129 140l19 20z" />
    <glyph glyph-name="fraction" unicode="&#x2044;" horiz-adv-x="108" 
d="M288 700l-430 -700h-48l436 700h42z" />
    <glyph glyph-name="Euro" unicode="&#x20ac;" horiz-adv-x="708" 
d="M642 108l32 -33q-102 -85 -232 -85q-118 0 -218.5 79t-128.5 203h-70v38h64q-2 26 -2 40q0 19 1 28h-63v37h68q23 129 125.5 212t223.5 83q128 0 230 -83l-31 -35q-84 72 -195 72q-104 0 -192.5 -70t-111.5 -179h227v-37h-233q-1 -9 -1 -28q0 -14 2 -40h232v-38h-224
q26 -105 113 -170.5t188 -65.5q112 0 196 72z" />
    <glyph glyph-name="trademark" unicode="&#x2122;" horiz-adv-x="546" 
d="M236 700v-29h-69v-151h-33v151h-69v29h171zM481 700v-180h-32v120l-60 -120h-26l-60 120v-120h-32v180h32l73 -141l73 141h32z" />
    <glyph glyph-name="oneeighth" unicode="&#x215b;" horiz-adv-x="556" 
d="M100 701v-261h-37v221l-17 -11l-18 31l35 20h37zM503 700l-430 -700h-48l436 700h42zM439 263q36 0 57.5 -20t21.5 -47q0 -34 -30 -53q43 -21 43 -66q0 -34 -27 -56.5t-65 -22.5q-37 0 -64 22.5t-27 56.5q0 45 43 66q-30 19 -30 53q0 26 21.5 46.5t56.5 20.5zM439 232
q-20 0 -30.5 -10.5t-10.5 -25.5t12.5 -27t28.5 -12q17 0 29 11.5t12 27.5q0 36 -41 36zM439 126q-22 0 -38 -14t-16 -35q0 -20 16 -34t38 -14q24 0 39 13t15 35t-15 35.5t-39 13.5z" />
    <glyph glyph-name="threeeighths" unicode="&#x215c;" horiz-adv-x="574" 
d="M116 703q32 0 56 -20.5t24 -47.5q0 -32 -30 -53q42 -18 42 -66q0 -34 -27.5 -57t-64.5 -23q-40 0 -66.5 27t-24.5 64h38q0 -24 14.5 -41.5t38.5 -17.5q22 0 38 13.5t16 34.5q0 48 -74 48v29q63 0 63 42q0 16 -12.5 26.5t-30.5 10.5q-22 0 -34.5 -14.5t-12.5 -40.5h-37
q-1 38 23 62t61 24zM523 700l-430 -700h-48l436 700h42zM457 263q36 0 57.5 -20t21.5 -47q0 -34 -30 -53q43 -21 43 -66q0 -34 -27 -56.5t-65 -22.5q-37 0 -64 22.5t-27 56.5q0 45 43 66q-30 19 -30 53q0 26 21.5 46.5t56.5 20.5zM457 232q-20 0 -30.5 -10.5t-10.5 -25.5
t12.5 -27t28.5 -12q17 0 29 11.5t12 27.5q0 36 -41 36zM457 126q-22 0 -38 -14t-16 -35q0 -20 16 -34t38 -14q24 0 39 13t15 35t-15 35.5t-39 13.5z" />
    <glyph glyph-name="fiveeighths" unicode="&#x215d;" horiz-adv-x="576" 
d="M186 701v-32h-104l-8 -58q22 10 45 10q35 0 63 -26.5t28 -65.5t-28 -66t-67 -27q-33 0 -58.5 18.5t-31.5 43.5l33 19q2 -20 17.5 -34.5t39.5 -14.5q23 0 40 17.5t17 43.5q0 25 -16.5 42.5t-36.5 17.5q-35 0 -57 -29l-32 8l18 133h138zM523 700l-430 -700h-48l436 700h42z
M459 263q36 0 57.5 -20t21.5 -47q0 -34 -30 -53q43 -21 43 -66q0 -34 -27 -56.5t-65 -22.5q-37 0 -64 22.5t-27 56.5q0 45 43 66q-30 19 -30 53q0 26 21.5 46.5t56.5 20.5zM459 232q-20 0 -30.5 -10.5t-10.5 -25.5t12.5 -27t28.5 -12q17 0 29 11.5t12 27.5q0 36 -41 36z
M459 126q-22 0 -38 -14t-16 -35q0 -20 16 -34t38 -14q24 0 39 13t15 35t-15 35.5t-39 13.5z" />
    <glyph glyph-name="seveneighths" unicode="&#x215e;" horiz-adv-x="556" 
d="M200 701l-102 -261h-39l89 229h-121v32h173zM503 700l-430 -700h-48l436 700h42zM439 263q36 0 57.5 -20t21.5 -47q0 -34 -30 -53q43 -21 43 -66q0 -34 -27 -56.5t-65 -22.5q-37 0 -64 22.5t-27 56.5q0 45 43 66q-30 19 -30 53q0 26 21.5 46.5t56.5 20.5zM439 232
q-20 0 -30.5 -10.5t-10.5 -25.5t12.5 -27t28.5 -12q17 0 29 11.5t12 27.5q0 36 -41 36zM439 126q-22 0 -38 -14t-16 -35q0 -20 16 -34t38 -14q24 0 39 13t15 35t-15 35.5t-39 13.5z" />
    <glyph glyph-name="partialdiff" unicode="&#x2202;" horiz-adv-x="530" 
d="M162 700h53l158 -222q1 -2 19 -26.5t23.5 -33l21 -32.5t21.5 -39.5l15.5 -39t13 -47t3.5 -47.5q0 -96 -65.5 -159.5t-160.5 -63.5q-94 0 -159 63t-65 157q0 93 67 156t158 63q64 0 119 -38zM264 385q-70 0 -124.5 -48t-54.5 -127q0 -78 54 -127t125 -49q74 0 127.5 49
t53.5 127q0 82 -50.5 128.5t-130.5 46.5z" />
    <glyph glyph-name="product" unicode="&#x220f;" horiz-adv-x="645" 
d="M45 800h555v-990h-42v943h-471v-943h-42v990z" />
    <glyph glyph-name="summation" unicode="&#x2211;" horiz-adv-x="647" 
d="M602 800v-49h-475l250 -446l-250 -446h475v-49h-557l275 495l-275 495h557z" />
    <glyph glyph-name="minus" unicode="&#x2212;" horiz-adv-x="425" 
d="M380 301v-37h-335v37h335z" />
    <glyph glyph-name="radical" unicode="&#x221a;" horiz-adv-x="650" 
d="M605 800l-247 -990h-47l-161 474h-105v46h138l149 -450l228 920h45z" />
    <glyph glyph-name="infinity" unicode="&#x221e;" horiz-adv-x="795" 
d="M587 424q68 0 115.5 -46.5t47.5 -115.5q0 -71 -47.5 -118t-115.5 -47q-97 0 -189 128q-93 -128 -190 -128q-68 0 -115.5 47t-47.5 118q0 69 47.5 115.5t115.5 46.5q96 0 190 -125q92 125 189 125zM210 141q81 0 161 121q-79 118 -161 118q-50 0 -84 -34t-34 -84
q0 -51 34 -86t84 -35zM584 141q51 0 85 35t34 86q0 50 -34 84t-85 34q-81 0 -160 -118q80 -121 160 -121z" />
    <glyph glyph-name="integral" unicode="&#x222b;" horiz-adv-x="284" 
d="M259 800v-42q-52 0 -74 -23.5t-22 -87.5v-683q0 -90 -35 -122t-108 -32v42q52 0 74 23.5t22 87.5v683q0 90 35 122t108 32z" />
    <glyph glyph-name="approxequal" unicode="&#x2248;" horiz-adv-x="460" 
d="M144 411q37 0 66 -17.5l55.5 -34.5t56.5 -17q32 0 48 14.5t16 33.5h29q0 -44 -26.5 -66t-68.5 -22q-46 0 -96 35.5t-87 35.5q-33 0 -49 -17.5t-15 -36.5h-28q0 44 28.5 68t70.5 24zM144 251q37 0 66 -17.5l55.5 -34.5t56.5 -17q32 0 48 14.5t16 33.5h29q0 -44 -26.5 -66
t-68.5 -22q-46 0 -96 35.5t-87 35.5q-33 0 -49 -17.5t-15 -36.5h-28q0 44 28.5 68t70.5 24z" />
    <glyph glyph-name="notequal" unicode="&#x2260;" horiz-adv-x="425" 
d="M380 344h-122l-48 -123h170v-37h-184l-72 -184h-41l72 184h-110v37h124l48 123h-172v37h186l70 180h41l-70 -180h108v-37z" />
    <glyph glyph-name="lessequal" unicode="&#x2264;" horiz-adv-x="435" 
d="M389 593v-42l-291 -176l291 -174v-44l-343 208v21zM389 37v-37h-335v37h335z" />
    <glyph glyph-name="greaterequal" unicode="&#x2265;" horiz-adv-x="434" 
d="M46 593l343 -207v-21l-343 -208v44l291 174l-291 176v42zM46 37h335v-37h-335v37z" />
    <glyph glyph-name="lozenge" unicode="&#x25ca;" horiz-adv-x="458" 
d="M258 700l155 -350l-155 -350h-58l-155 350l155 350h58zM229 45l135 305l-135 305l-135 -305z" />
    <glyph glyph-name="M.ss01" horiz-adv-x="887" 
d="M772 700l60 -700h-48l-51 615l-272 -615h-35l-272 615l-51 -615h-48l60 700h48l281 -632l280 632h48z" />
    <glyph glyph-name="i.loclTRK" horiz-adv-x="176" 
d="M106 701v-47h-46v47h46zM115 520v-520h-46v520h46z" />
    <glyph glyph-name="f_t" horiz-adv-x="575" 
d="M535 479h-109v-394q0 -49 48 -49q29 0 59 15v-41q-35 -16 -68 -16q-38 0 -61.5 19.5t-23.5 58.5v407h-263v-479h-47v479h-50v41h50v49q0 150 137 150q55 0 102 -29l-18 -33q-33 19 -79 19q-45 0 -70 -24t-25 -84v-48h263v133h46v-133h109v-41z" />
    <glyph glyph-name="t_t" horiz-adv-x="584" 
d="M543 479h-109v-394q0 -49 48 -49q29 0 59 15v-41q-35 -16 -68 -16q-38 0 -61.5 19.5t-23.5 58.5v407h-241v-394q0 -49 48 -49q29 0 59 15v-41q-35 -16 -68 -16q-38 0 -61.5 19.5t-23.5 58.5v407h-71v41h71v133h46v-133h241v133h46v-133h109v-41z" />
    <glyph glyph-name="zero.ss01" horiz-adv-x="627" 
d="M313 710q120 0 194.5 -97t74.5 -263t-74.5 -263t-194.5 -97t-194 97t-74 263t74 263t194 97zM313 667q-99 0 -160 -85t-61 -232q0 -148 61 -232t160 -84q100 0 161 84t61 232q0 147 -61.5 232t-160.5 85z" />
    <glyph glyph-name="zero.tf" horiz-adv-x="700" 
d="M350 710q120 0 194 -97t74 -263t-74 -263t-194 -97t-194 97t-74 263t74 263t194 97zM350 667q-99 0 -160 -85t-61 -232q0 -148 61 -232t160 -84t160 84t61 232q0 147 -61 232t-160 85z" />
    <glyph glyph-name="one.tf" horiz-adv-x="700" 
d="M379 700v-700h-46v655h-90v45h136z" />
    <glyph glyph-name="two.tf" horiz-adv-x="700" 
d="M342 710q88 0 148 -56t60 -141q0 -23 -7.5 -47.5t-16.5 -43t-31 -48.5t-36 -47l-48.5 -57l-51.5 -60l-143 -168h333v-42h-412v15l186 218q14 17 40.5 46.5l37.5 42.5l29.5 35.5t26.5 34.5t19 30t15.5 31t8 28.5t3.5 31.5q0 69 -46.5 111.5t-114.5 42.5t-115 -45t-47 -122
v-16h-47v16q0 93 60 151.5t149 58.5z" />
    <glyph glyph-name="three.tf" horiz-adv-x="700" 
d="M152 156q22 -55 71 -89t118 -34q78 0 133.5 47t55.5 129q0 97 -69 141.5t-169 28.5l181 279h-328v42h402l-187 -283q88 2 152.5 -54t64.5 -154q0 -99 -68 -159t-167 -60q-84 0 -145 41.5t-84 108.5z" />
    <glyph glyph-name="four.tf" horiz-adv-x="700" 
d="M557 241v-43h-75v-198h-47v198h-314v43l314 459h47v-459h75zM170 241h265v389z" />
    <glyph glyph-name="five.tf" horiz-adv-x="700" 
d="M514 700v-42h-296l-37 -258q64 71 170 71q93 0 163.5 -67.5t70.5 -172.5t-70 -173t-172 -68q-86 0 -144.5 40t-85.5 103l40 21q20 -51 69 -86t119 -35q83 0 140.5 55.5t57.5 142.5q0 86 -57 142t-137 56q-100 0 -169 -83l-43 10l48 344h333z" />
    <glyph glyph-name="six.tf" horiz-adv-x="700" 
d="M455 700l-222 -309q55 38 119 38q91 0 158 -63t67 -156q0 -94 -65 -157t-159 -63q-95 0 -160.5 63.5t-65.5 159.5q0 24 3.5 47.5t13 47l15.5 39t21.5 39.5l21 32.5t23.5 33t19 26.5l158 222h53zM353 385q-80 0 -130.5 -46.5t-50.5 -128.5q0 -78 53.5 -127t127.5 -49
q71 0 125 49t54 127q0 79 -54.5 127t-124.5 48z" />
    <glyph glyph-name="seven.tf" horiz-adv-x="700" 
d="M550 700l-271 -700h-47l256 658h-340v42h402z" />
    <glyph glyph-name="eight.tf" horiz-adv-x="700" 
d="M437 389q59 -25 95 -75t36 -116q0 -92 -65.5 -150t-157.5 -58t-157.5 58t-65.5 150q0 66 36 116t96 75q-92 53 -92 151q0 71 50 120.5t133 49.5t133 -49.5t50 -120.5q0 -98 -91 -151zM206 540q0 -56 40 -95t99 -39t99 39t40 95q0 51 -37.5 89.5t-101.5 38.5
q-63 0 -101 -38.5t-38 -89.5zM345 34q72 0 123.5 45.5t51.5 118.5t-50.5 119.5t-124.5 46.5t-124.5 -46.5t-50.5 -119.5t51.5 -118.5t123.5 -45.5z" />
    <glyph glyph-name="nine.tf" horiz-adv-x="700" 
d="M239 0l222 309q-55 -38 -119 -38q-91 0 -158 63t-67 156q0 94 65 157t159 63q95 0 160.5 -63.5t65.5 -159.5q0 -24 -3.5 -47.5t-13 -47l-15.5 -39t-21.5 -39.5l-21 -32.5t-23.5 -33t-19 -26.5l-158 -222h-53zM341 315q80 0 130.5 46.5t50.5 128.5q0 78 -53.5 127
t-127.5 49q-71 0 -125 -49t-54 -127q0 -79 54.5 -127t124.5 -48z" />
    <glyph glyph-name="zero.dnom" horiz-adv-x="260" 
d="M130 263q47 0 76 -35t29 -91v-13q0 -56 -29 -91t-76 -35q-45 0 -75 35t-30 91v13q0 56 30 91t75 35zM130 232q-29 0 -48.5 -25.5t-19.5 -69.5v-13q0 -44 19.5 -69.5t48.5 -25.5q31 0 49.5 25t18.5 70v13q0 45 -18.5 70t-49.5 25z" />
    <glyph glyph-name="one.dnom" horiz-adv-x="122" 
d="M97 261v-261h-37v221l-17 -11l-18 31l35 20h37z" />
    <glyph glyph-name="two.dnom" horiz-adv-x="221" 
d="M109 264q34 0 59 -22.5t25 -52.5q0 -26 -14.5 -47t-53.5 -61l-47 -49h118v-32h-168v32l68 69q28 29 36.5 38.5t15.5 22.5t7 27q0 18 -14 31t-32 13q-19 0 -33 -13t-14 -37v-14h-37v14q0 35 24.5 58t59.5 23z" />
    <glyph glyph-name="three.dnom" horiz-adv-x="233" 
d="M116 263q32 0 56 -20.5t24 -47.5q0 -32 -30 -53q42 -18 42 -66q0 -34 -27.5 -57t-64.5 -23q-40 0 -66.5 27t-24.5 64h38q0 -24 14.5 -41.5t38.5 -17.5q22 0 38 13.5t16 34.5q0 48 -74 48v29q63 0 63 42q0 16 -12.5 26.5t-30.5 10.5q-22 0 -34.5 -14.5t-12.5 -40.5h-37
q-1 38 23 62t61 24z" />
    <glyph glyph-name="four.dnom" horiz-adv-x="246" 
d="M194 261v-154h27v-31h-27v-76h-37v76h-132l132 185h37zM157 202l-65 -95h65v95z" />
    <glyph glyph-name="five.dnom" horiz-adv-x="235" 
d="M186 261v-32h-104l-8 -58q22 10 45 10q35 0 63 -26.5t28 -65.5t-28 -66t-67 -27q-33 0 -58.5 18.5t-31.5 43.5l33 19q2 -20 17.5 -34.5t39.5 -14.5q23 0 40 17.5t17 43.5q0 25 -16.5 42.5t-36.5 17.5q-35 0 -57 -29l-32 8l18 133h138z" />
    <glyph glyph-name="six.dnom" horiz-adv-x="223" 
d="M174 261l-68 -96h6q34 0 60 -25t26 -59q0 -35 -26 -60t-60 -25t-60.5 25t-26.5 60q0 16 5.5 31.5t10 23t18 25l16.5 21.5l57 79h42zM112 133q-22 0 -36 -14t-14 -38q0 -23 15.5 -38t34.5 -15q18 0 33.5 15t15.5 38t-15 37.5t-34 14.5z" />
    <glyph glyph-name="seven.dnom" horiz-adv-x="223" 
d="M198 261l-102 -261h-39l89 229h-121v32h173z" />
    <glyph glyph-name="eight.dnom" horiz-adv-x="233" 
d="M116 263q36 0 57.5 -20t21.5 -47q0 -34 -30 -53q43 -21 43 -66q0 -34 -27 -56.5t-65 -22.5q-37 0 -64 22.5t-27 56.5q0 45 43 66q-30 19 -30 53q0 26 21.5 46.5t56.5 20.5zM116 232q-20 0 -30.5 -10.5t-10.5 -25.5t12.5 -27t28.5 -12q18 0 29.5 11.5t11.5 27.5
q0 36 -41 36zM116 126q-22 0 -38 -14t-16 -35q0 -20 16 -34t38 -14q24 0 39 13t15 35t-15 35.5t-39 13.5z" />
    <glyph glyph-name="nine.dnom" horiz-adv-x="224" 
d="M112 264q34 0 60.5 -24.5t26.5 -59.5q0 -13 -2.5 -24t-9 -22.5t-10.5 -18t-14.5 -19.5l-14.5 -18l-56 -78h-43l68 95h-5q-35 0 -61 25.5t-26 59.5q0 35 26.5 59.5t60.5 24.5zM112 232q-19 0 -34.5 -15t-15.5 -37q0 -23 15.5 -38t34.5 -15q22 0 35.5 14.5t13.5 38.5
q0 22 -15.5 37t-33.5 15z" />
    <glyph glyph-name="zero.numr" horiz-adv-x="260" 
d="M130 703q47 0 76 -35t29 -91v-13q0 -56 -29 -91t-76 -35q-45 0 -75 35t-30 91v13q0 56 30 91t75 35zM130 672q-29 0 -48.5 -25.5t-19.5 -69.5v-13q0 -44 19.5 -69.5t48.5 -25.5q31 0 49.5 25t18.5 70v13q0 45 -18.5 70t-49.5 25z" />
    <glyph glyph-name="one.numr" horiz-adv-x="122" 
d="M97 701v-261h-37v221l-17 -11l-18 31l35 20h37z" />
    <glyph glyph-name="two.numr" horiz-adv-x="221" 
d="M109 704q34 0 59 -22.5t25 -52.5q0 -26 -14.5 -47t-53.5 -61l-47 -49h118v-32h-168v32l68 69q28 29 36.5 38.5t15.5 22.5t7 27q0 18 -14 31t-32 13q-19 0 -33 -13t-14 -37v-14h-37v14q0 35 24.5 58t59.5 23z" />
    <glyph glyph-name="three.numr" horiz-adv-x="233" 
d="M116 703q32 0 56 -20.5t24 -47.5q0 -32 -30 -53q42 -18 42 -66q0 -34 -27.5 -57t-64.5 -23q-40 0 -66.5 27t-24.5 64h38q0 -24 14.5 -41.5t38.5 -17.5q22 0 38 13.5t16 34.5q0 48 -74 48v29q63 0 63 42q0 16 -12.5 26.5t-30.5 10.5q-22 0 -34.5 -14.5t-12.5 -40.5h-37
q-1 38 23 62t61 24z" />
    <glyph glyph-name="four.numr" horiz-adv-x="246" 
d="M194 701v-154h27v-31h-27v-76h-37v76h-132l132 185h37zM157 642l-65 -95h65v95z" />
    <glyph glyph-name="five.numr" horiz-adv-x="235" 
d="M186 701v-32h-104l-8 -58q22 10 45 10q35 0 63 -26.5t28 -65.5t-28 -66t-67 -27q-33 0 -58.5 18.5t-31.5 43.5l33 19q2 -20 17.5 -34.5t39.5 -14.5q23 0 40 17.5t17 43.5q0 25 -16.5 42.5t-36.5 17.5q-35 0 -57 -29l-32 8l18 133h138z" />
    <glyph glyph-name="six.numr" horiz-adv-x="223" 
d="M174 701l-68 -96h6q34 0 60 -25t26 -59q0 -35 -26 -60t-60 -25t-60.5 25t-26.5 60q0 16 5.5 31.5t10 23t18 25l16.5 21.5l57 79h42zM112 573q-22 0 -36 -14t-14 -38q0 -23 15.5 -38t34.5 -15q18 0 33.5 15t15.5 38t-15 37.5t-34 14.5z" />
    <glyph glyph-name="seven.numr" horiz-adv-x="223" 
d="M198 701l-102 -261h-39l89 229h-121v32h173z" />
    <glyph glyph-name="eight.numr" horiz-adv-x="233" 
d="M116 703q36 0 57.5 -20t21.5 -47q0 -34 -30 -53q43 -21 43 -66q0 -34 -27 -56.5t-65 -22.5q-37 0 -64 22.5t-27 56.5q0 45 43 66q-30 19 -30 53q0 26 21.5 46.5t56.5 20.5zM116 672q-20 0 -30.5 -10.5t-10.5 -25.5t12.5 -27t28.5 -12q18 0 29.5 11.5t11.5 27.5
q0 36 -41 36zM116 566q-22 0 -38 -14t-16 -35q0 -20 16 -34t38 -14q24 0 39 13t15 35t-15 35.5t-39 13.5z" />
    <glyph glyph-name="nine.numr" horiz-adv-x="224" 
d="M112 704q34 0 60.5 -24.5t26.5 -59.5q0 -13 -2.5 -24t-9 -22.5t-10.5 -18t-14.5 -19.5l-14.5 -18l-56 -78h-43l68 95h-5q-35 0 -61 25.5t-26 59.5q0 35 26.5 59.5t60.5 24.5zM112 672q-19 0 -34.5 -15t-15.5 -37q0 -23 15.5 -38t34.5 -15q22 0 35.5 14.5t13.5 38.5
q0 22 -15.5 37t-33.5 15z" />
    </font>
</defs>
</svg>
